<svg version="1.1" id="Layer_1" xmlns="http://www.w3.org/2000/svg" xmlns:xlink="http://www.w3.org/1999/xlink" x="0px" y="0px"
	 width="100%" viewBox="0 0 1053 208" enable-background="new 0 0 1053 208" xml:space="preserve">
<path fill="#FCFBF7" opacity="1.000000" stroke="none" 
	d="
M720.000000,209.000000 
	C480.047455,209.000000 240.594910,209.000000 1.071177,209.000000 
	C1.071177,139.727921 1.071177,70.455742 1.071177,1.091782 
	C352.000000,1.091782 703.000000,1.091782 1053.966797,1.091782 
	C1053.966797,70.405144 1053.966797,139.702591 1053.966797,209.000000 
	C942.789001,209.000000 831.644470,209.000000 720.000000,209.000000 
M326.975616,82.985405 
	C326.975616,82.985405 326.909088,82.878342 326.286560,82.991417 
	C325.777618,83.621880 325.268646,84.252342 324.139038,85.122459 
	C322.643646,86.484383 321.148254,87.846313 319.652863,89.208237 
	C319.205627,89.057800 318.758423,88.907356 318.311218,88.756920 
	C318.311218,85.388992 318.102234,82.005661 318.349060,78.655930 
	C319.206573,67.018944 317.733307,65.881706 306.478180,70.229149 
	C305.793884,70.641655 305.109558,71.054153 303.743347,71.653023 
	C302.203278,72.264313 300.663177,72.875610 298.519714,73.410294 
	C297.862885,73.829361 297.206085,74.248428 295.867798,74.723366 
	C294.611633,75.265663 293.355469,75.807961 291.509338,76.267487 
	C291.020660,76.583633 290.531952,76.899780 289.400970,77.247253 
	C288.637604,77.631065 287.874237,78.014877 286.413422,78.335449 
	C284.632324,79.388435 282.851257,80.441422 281.070160,81.494408 
	C281.229553,81.937309 281.388947,82.380211 281.548340,82.823112 
	C283.686646,82.823112 285.824921,82.823112 288.635529,82.939117 
	C288.860291,82.904541 289.085083,82.869965 289.238281,83.106354 
	C289.238281,83.106354 289.630005,83.163857 289.630005,83.163857 
	C289.630005,83.163857 289.718750,82.840439 290.360657,82.959473 
	C290.578003,82.948441 290.795349,82.937401 291.542755,83.304848 
	C292.409363,83.355133 293.275970,83.405426 294.693481,83.900520 
	C295.943665,85.587875 297.193878,87.275230 298.438812,89.508804 
	C298.663208,89.993553 298.887604,90.478302 299.003784,91.638939 
	C299.081512,92.085930 299.159271,92.532921 299.051270,93.652283 
	C299.118164,94.108727 299.185089,94.565170 299.090637,95.866600 
	C299.249969,97.563957 299.409302,99.261314 299.398071,101.673813 
	C299.462646,109.520966 299.495148,117.368599 299.614868,125.214912 
	C299.644073,127.129356 299.959534,129.039444 299.968048,131.786179 
	C300.011688,133.200485 300.055328,134.614777 299.786285,136.651001 
	C299.649506,145.778442 299.512726,154.905899 299.135895,164.773911 
	C298.322510,171.930740 292.704681,173.251770 286.485779,174.503845 
	C285.535461,175.162994 284.585144,175.822144 283.634827,176.481277 
	C284.562469,177.151367 285.474457,178.362747 286.420685,178.390121 
	C289.265808,178.472397 292.124298,178.093201 295.915497,177.964462 
	C304.901031,178.083755 313.886353,178.222366 322.872162,178.313522 
	C326.865112,178.354034 330.862122,178.375732 334.849670,178.215942 
	C335.565155,178.187256 336.243408,177.230087 336.938873,176.701614 
	C336.358887,176.089401 335.884979,175.244263 335.173706,174.920303 
	C334.141724,174.450241 332.950348,174.257111 331.806030,174.118225 
	C322.918365,173.039520 319.416168,168.784439 319.599915,159.779358 
	C319.711670,154.301361 319.285889,148.814682 319.237793,143.330704 
	C319.109589,128.715744 318.983459,114.099686 319.073517,99.485405 
	C319.083374,97.887383 320.178253,95.993622 321.328522,94.756454 
	C326.835388,88.833626 333.508026,84.517365 341.260345,82.253807 
	C353.448090,78.695190 362.542297,84.768303 364.109802,97.370056 
	C364.780334,102.761230 365.268127,108.204201 365.365692,113.632133 
	C365.661255,130.076782 365.740784,146.525467 365.869385,162.972855 
	C365.903442,167.329849 364.173096,170.737244 359.993378,172.451050 
	C356.180878,174.014313 352.283447,175.370605 347.389954,177.205688 
	C349.754272,177.624405 351.358887,177.908600 353.431519,178.583099 
	C354.006439,178.480270 354.581390,178.377441 355.946075,178.508575 
	C357.585632,178.476181 359.225159,178.443787 361.752899,178.690155 
	C365.494751,178.425934 369.236633,178.161713 373.736115,177.975845 
	C374.496460,177.948044 375.256836,177.920258 376.340881,178.185074 
	C376.888824,178.098160 377.436768,178.011246 378.902161,178.007721 
	C384.717926,178.301727 390.533142,178.767685 396.349792,178.786102 
	C398.119293,178.791702 399.892731,177.563354 401.664368,176.900162 
	C388.840393,173.487595 385.235840,169.180130 385.158722,156.514771 
	C385.055573,139.575378 385.222900,122.629234 384.765289,105.699745 
	C384.597839,99.503838 383.698334,93.121712 381.856781,87.222900 
	C378.690338,77.080292 371.631256,70.450783 360.323456,67.760880 
	C357.897461,67.892464 355.471497,68.024048 352.294983,68.000969 
	C351.548431,68.126503 350.801910,68.252037 349.350128,68.280182 
	C346.897186,69.510788 344.444214,70.741394 341.282288,71.988678 
	C339.537018,73.032204 337.791779,74.075729 335.443054,75.180283 
	C334.930603,75.763817 334.418152,76.347359 333.982025,76.996696 
	C333.982025,76.996696 333.935303,76.907425 333.251923,76.962303 
	C331.845764,78.314827 330.439575,79.667351 329.001404,80.997704 
	C329.001404,80.997704 329.018585,81.032227 328.410126,81.119461 
	C327.899231,81.715103 327.388336,82.310753 326.975616,82.985405 
M554.164673,138.669739 
	C554.217468,139.099197 554.270325,139.528656 554.019409,140.731812 
	C554.149109,144.838577 554.278870,148.945343 554.256958,153.937622 
	C554.224121,156.637115 554.191284,159.336594 553.841125,162.490189 
	C553.599365,164.008499 553.357605,165.526810 552.622437,167.477005 
	C552.044861,168.629486 551.467285,169.781967 550.969482,170.980682 
	C550.969482,170.980682 550.936523,170.894485 550.364624,170.983246 
	C549.863525,171.522079 549.362488,172.060898 548.210205,172.805359 
	C547.804688,173.012253 547.399170,173.219147 546.247864,173.307205 
	C544.037354,176.353333 537.902649,172.559204 536.693970,178.827454 
	C545.872375,178.827454 554.435730,178.827454 563.909729,179.065948 
	C570.946655,179.024353 577.983643,178.982758 585.589722,179.332199 
	C587.436157,179.344269 589.282593,179.356354 592.056763,179.313385 
	C592.019165,178.311386 591.981628,177.309372 591.496704,175.629822 
	C590.724854,175.550232 589.952942,175.470642 588.686035,175.060715 
	C588.108276,175.086487 587.530457,175.112259 586.575745,174.749130 
	C586.049072,174.630005 585.522339,174.510895 584.529297,173.823273 
	C576.884521,171.041702 573.261841,165.634750 573.771484,157.468872 
	C573.863892,155.988586 573.696655,154.492126 573.872314,152.159988 
	C573.695740,150.437653 573.519226,148.715302 573.629578,146.191284 
	C573.447021,136.068512 573.693298,125.914772 572.965210,115.831383 
	C572.186523,105.047394 574.689148,95.782478 582.203735,87.821182 
	C586.106995,83.685921 590.167908,82.855469 595.293579,86.004929 
	C597.271362,87.220207 599.213257,88.505653 601.256409,89.600723 
	C606.492798,92.407272 610.364441,92.149300 613.978027,88.410263 
	C617.453613,84.814041 617.966919,80.574242 615.695862,75.470840 
	C615.165955,74.915154 614.635986,74.359467 613.850220,73.183151 
	C610.932190,71.658775 608.014160,70.134399 604.349792,68.269806 
	C603.540710,68.313118 602.731628,68.356430 601.292175,68.260872 
	C600.895752,68.404739 600.499390,68.548599 599.385864,68.544930 
	C596.809143,69.631981 594.232483,70.719040 591.272583,71.839058 
	C591.272583,71.839058 591.033630,72.140457 590.433777,72.111900 
	C589.744629,72.770729 589.055420,73.429558 587.841797,74.405258 
	C587.588440,74.722298 587.335144,75.039337 586.461914,75.474655 
	C585.327332,76.655212 584.192749,77.835770 582.759216,79.159149 
	C582.759216,79.159149 582.689697,79.483078 582.047913,79.719734 
	C580.702393,81.814896 579.356873,83.910057 577.498230,86.307663 
	C577.025696,86.937500 576.553162,87.567337 575.284546,88.464531 
	C574.497009,88.369652 573.709412,88.274765 572.869812,87.233757 
	C572.713135,83.493668 572.556458,79.753578 572.639648,75.281837 
	C572.603149,74.518410 572.566711,73.754982 572.802795,72.289650 
	C572.707336,71.558212 572.611816,70.826782 572.462219,69.450371 
	C571.266296,69.204880 570.070374,68.959381 568.329346,68.417656 
	C567.562561,68.651581 566.795715,68.885506 565.421814,69.045692 
	C564.955994,69.395729 564.490234,69.745766 563.369446,70.185631 
	C562.581238,70.566490 561.792969,70.947350 560.366150,71.280121 
	C559.490662,71.814102 558.615173,72.348091 557.116211,72.813782 
	C556.410828,73.200607 555.705383,73.587433 554.313354,73.810722 
	C553.441528,74.502243 552.569763,75.193771 551.322693,75.814201 
	C551.322693,75.814201 551.000000,76.018661 550.254639,75.834106 
	C549.519104,76.009689 548.783508,76.185280 547.417358,76.379120 
	C546.516968,76.872711 545.616577,77.366302 544.118713,77.863754 
	C543.762756,78.032173 543.406860,78.200592 542.359375,78.301987 
	C540.004211,79.550331 537.648987,80.798668 535.293823,82.047005 
	C535.500061,82.594910 535.706299,83.142815 535.912537,83.690720 
	C537.956543,83.690720 540.000610,83.690720 542.815552,83.863060 
	C543.863525,83.810059 544.911560,83.757057 546.625122,83.941414 
	C547.763489,84.216286 548.901855,84.491158 550.371582,85.352440 
	C551.272766,86.897324 552.173889,88.442200 552.925354,90.688957 
	C553.126221,91.832726 553.327087,92.976501 553.477112,94.839272 
	C553.588135,95.542114 553.699219,96.244949 553.575317,97.654793 
	C553.744385,100.096954 553.913452,102.539116 553.972229,105.727409 
	C554.027771,106.477791 554.083252,107.228165 553.914429,108.826241 
	C553.993896,115.209549 554.073303,121.592850 553.992371,128.804214 
	C554.017822,130.207123 554.043213,131.610016 553.751099,133.561401 
	C553.949097,135.054077 554.147156,136.546768 554.164673,138.669739 
M826.533020,74.522202 
	C826.533020,74.522202 826.434570,74.564926 825.829590,74.749046 
	C824.783447,75.777611 823.737305,76.806183 822.174927,77.992744 
	C821.711426,78.528343 821.247925,79.063950 820.126953,79.828148 
	C818.230164,83.912453 816.333374,87.996758 814.201050,92.677811 
	C814.220398,93.102325 814.239746,93.526840 814.011414,94.741043 
	C814.056091,97.481369 814.100830,100.221687 814.062073,103.705322 
	C814.555176,105.107399 815.048218,106.509476 815.390015,108.553642 
	C815.984131,109.686928 816.578247,110.820221 817.169800,112.616203 
	C818.429016,114.086113 819.688232,115.556015 821.088379,117.686829 
	C823.393616,119.454895 825.698853,121.222961 828.411011,123.530937 
	C832.290039,125.616547 836.169067,127.702156 840.480347,130.296005 
	C841.669617,130.825424 842.858887,131.354843 844.541931,132.362640 
	C853.082092,137.076248 862.420105,140.570786 868.902405,148.417664 
	C873.033264,153.417969 873.437378,160.826523 870.699219,166.553055 
	C865.753296,176.896790 849.555176,177.568817 841.477539,174.246613 
	C830.353271,169.671341 823.819763,161.298996 819.964294,150.269440 
	C819.106140,147.814438 817.340759,145.676529 815.993103,143.392624 
	C815.428345,143.656921 814.863586,143.921219 814.298828,144.185516 
	C814.298828,155.566406 814.138123,166.951233 814.416748,178.325302 
	C814.482849,181.025513 816.974060,181.069916 818.948730,179.783966 
	C822.211731,177.659027 825.347412,178.349380 828.906128,179.167755 
	C836.008423,180.801025 843.236633,182.294632 850.485291,182.793732 
	C863.393738,183.682541 875.099548,179.569778 883.250488,169.505280 
	C894.955933,155.051804 892.300842,137.054092 875.783386,125.996063 
	C866.922791,120.064156 856.559326,116.421982 847.129089,111.278877 
	C841.674500,108.304001 835.945190,105.151138 831.717285,100.753716 
	C823.401123,92.104172 827.213684,80.325592 838.354553,76.054077 
	C849.753052,71.683815 868.474670,77.619240 872.864380,90.864998 
	C874.113586,94.634453 875.977417,98.208839 877.691284,101.809875 
	C878.149719,102.772919 879.094727,103.504356 879.816284,104.342125 
	C880.455566,104.177254 881.094849,104.012383 881.734131,103.847511 
	C881.734131,94.953163 881.748962,86.058769 881.722656,77.164497 
	C881.716797,75.175133 881.869995,73.113075 881.412170,71.214157 
	C880.721436,68.349182 879.417297,67.487511 876.419983,69.561691 
	C874.250916,71.062729 871.138733,71.892494 868.483459,71.812645 
	C865.604126,71.726059 862.795532,70.127365 859.906189,69.381310 
	C849.637634,66.729881 839.562256,66.424179 829.444031,72.166176 
	C828.489868,72.919594 827.535645,73.673012 826.533020,74.522202 
M657.154785,155.041840 
	C656.441589,154.680542 655.728394,154.319260 654.712646,153.356445 
	C645.477295,143.587936 640.335876,132.048401 639.255371,118.603180 
	C638.790955,112.824547 639.688904,111.415298 645.590271,111.406601 
	C651.404114,111.398026 657.218079,111.652718 663.032288,111.665146 
	C680.605225,111.702698 698.178284,111.678703 715.704773,111.678703 
	C718.620239,98.028114 709.149414,78.083595 688.437012,70.048576 
	C671.592224,63.513931 644.528259,71.749931 633.195618,87.853058 
	C632.869995,88.584862 632.544434,89.316658 631.796936,90.543007 
	C631.107849,91.871902 630.418823,93.200798 629.119141,94.876572 
	C628.191345,97.274460 627.263611,99.672348 625.850891,102.691345 
	C625.282898,105.804924 624.714844,108.918503 623.775757,112.570801 
	C623.780762,113.418205 623.785767,114.265610 623.476196,115.889145 
	C623.396423,117.277023 623.316650,118.664909 622.838989,120.735176 
	C622.805664,123.527863 622.772278,126.320549 622.452759,129.780212 
	C622.558411,130.485504 622.664001,131.190796 622.486572,132.488052 
	C622.717163,133.309982 622.947754,134.131897 623.061157,135.788849 
	C623.246704,137.159317 623.432251,138.529770 623.557861,140.658630 
	C626.023071,146.801529 628.488281,152.944443 631.005493,159.663834 
	C631.294800,160.130844 631.584167,160.597855 631.981567,161.736771 
	C634.351868,164.084152 636.722229,166.431534 639.407715,169.353714 
	C640.862915,170.609634 642.318176,171.865555 643.921448,173.720123 
	C644.635437,174.094467 645.349365,174.468796 646.443054,175.408157 
	C648.297974,176.192657 650.152893,176.977142 652.372437,178.091339 
	C652.372437,178.091339 652.827759,178.276932 652.827759,178.276932 
	C652.827759,178.276932 653.318054,178.240570 653.749023,178.815369 
	C655.505066,179.361710 657.261169,179.908051 659.635986,180.807281 
	C660.104004,180.829971 660.572083,180.852646 661.412781,181.293228 
	C661.947327,181.362091 662.481934,181.430954 663.805603,181.827026 
	C665.217346,181.842957 666.629150,181.858887 668.671326,182.191635 
	C670.779846,182.124939 672.888428,182.058228 675.823608,182.154068 
	C677.212341,181.994537 678.601135,181.834991 680.551575,181.824417 
	C681.020264,181.511032 681.488953,181.197647 682.717224,180.988846 
	C684.791504,180.254303 686.865723,179.519745 689.590332,178.828766 
	C690.489258,178.255753 691.388245,177.682724 692.954773,176.997025 
	C704.125549,168.844147 713.247070,159.216827 716.338318,144.677856 
	C716.334839,144.078430 716.331421,143.479004 716.596863,142.150726 
	C715.734802,141.537399 714.872803,140.924057 713.380005,140.073532 
	C712.621033,141.383423 711.862061,142.693314 710.785217,144.151138 
	C710.785217,144.151138 710.832092,144.498627 710.277344,144.817398 
	C709.909668,145.546524 709.541992,146.275650 708.721619,147.373444 
	C708.422668,148.077469 708.123779,148.781479 707.211426,149.801804 
	C706.413513,151.177811 705.615540,152.553802 704.274048,154.116211 
	C703.851929,154.751801 703.429810,155.387390 702.331726,156.159576 
	C698.090637,161.241348 691.636536,161.800903 685.134216,164.040314 
	C682.084595,164.041809 679.034973,164.043304 675.373474,163.672867 
	C672.577271,162.933533 669.781067,162.194214 666.474976,161.109787 
	C666.075562,161.037323 665.676147,160.964874 664.963623,160.313492 
	C663.974792,159.914017 662.985901,159.514557 661.824768,158.780273 
	C661.824768,158.780273 661.453613,158.843796 661.117004,158.263000 
	C659.862610,157.377274 658.608154,156.491547 657.080200,155.878021 
	C657.080200,155.878021 657.383545,155.639465 657.154785,155.041840 
M263.358337,76.787506 
	C262.577637,76.172035 261.796906,75.556564 260.793121,74.346924 
	C259.671051,73.845894 258.549011,73.344864 257.042755,72.245590 
	C255.736389,71.723328 254.430023,71.201057 252.673096,70.162308 
	C249.787140,69.233704 246.901199,68.305099 243.180161,67.139496 
	C241.451111,67.148514 239.722046,67.157532 237.092712,67.039330 
	C214.336960,66.885056 193.753342,79.866570 188.363541,107.421310 
	C185.369934,122.725830 185.532257,137.826096 192.058578,152.354584 
	C197.805847,165.148758 207.496826,174.425476 220.604904,178.419510 
	C244.485519,185.695953 262.337555,175.925491 273.773468,155.648026 
	C276.030670,151.645676 277.426300,147.108627 278.790222,142.685852 
	C279.128113,141.590271 277.789368,139.977615 277.221283,138.602646 
	C276.122498,139.376495 274.784760,139.961243 273.985107,140.971771 
	C272.970886,142.253433 272.306671,143.842834 271.641266,145.364990 
	C263.858826,163.168335 243.153290,167.100342 227.100967,158.391510 
	C213.070145,150.779358 205.441162,138.041901 203.767166,122.155891 
	C202.473831,109.882332 202.742508,110.236580 215.319687,110.461098 
	C234.783585,110.808540 254.257950,110.586044 273.727814,110.556725 
	C275.321228,110.554321 276.914032,110.180595 279.076935,109.907448 
	C278.067841,98.836975 275.526917,88.970871 267.628357,80.447395 
	C266.289795,79.457169 264.951263,78.466934 263.507172,77.481903 
	C263.507172,77.481903 263.517639,77.376762 263.358337,76.787506 
M1001.519226,66.623383 
	C1004.400330,66.787025 1007.539917,67.425629 1008.693359,63.128849 
	C1009.161316,63.192741 1009.629211,63.256634 1010.426208,63.719864 
	C1010.961121,63.246918 1011.496033,62.773968 1012.660339,61.986965 
	C1014.373657,60.056084 1016.086975,58.125198 1018.363525,55.785049 
	C1021.575745,49.449863 1020.753845,43.213997 1017.869995,36.350903 
	C1011.868958,28.189516 1003.970581,25.107464 993.230835,27.483932 
	C987.640503,29.191706 983.442871,32.542686 980.294434,38.327465 
	C978.410461,43.149693 977.422180,47.975937 980.192322,53.485424 
	C981.041199,54.673195 981.890076,55.860970 982.968201,57.723698 
	C985.462769,59.711800 987.957275,61.699902 990.926086,64.245804 
	C994.294739,64.863350 997.663330,65.480888 1001.519226,66.623383 
M780.366882,83.556770 
	C780.953186,84.021889 781.539490,84.487007 782.155945,85.647766 
	C784.019592,89.130363 785.883240,92.612953 787.691345,96.668213 
	C787.910583,97.179634 788.129761,97.691048 788.404236,98.914177 
	C788.908508,99.952797 789.412781,100.991425 789.957642,102.726662 
	C791.442932,104.455856 792.570740,104.688347 793.373352,101.271019 
	C793.389282,95.368950 793.440918,89.466682 793.407532,83.564896 
	C793.387512,80.025581 793.234680,76.487022 793.169006,72.191666 
	C791.688599,66.377853 789.496033,69.193878 786.556152,71.779297 
	C781.664429,74.115662 776.899231,72.918709 772.449707,70.763710 
	C760.585327,65.017540 743.354980,68.354988 733.960083,78.088249 
	C722.199585,90.272354 723.771118,112.698387 735.968933,120.162560 
	C745.026855,125.705322 754.463989,130.624695 763.610779,136.027313 
	C768.886414,139.143402 774.365845,142.156296 778.947571,146.142136 
	C784.285278,150.785721 786.453674,157.298584 783.937195,164.221909 
	C781.406616,171.184174 775.872498,174.450806 768.474609,175.625137 
	C754.627197,177.823273 736.673645,166.704147 732.741272,151.381622 
	C731.990601,148.456619 730.110779,145.821426 728.202820,141.933685 
	C727.310059,144.123856 726.871948,144.706802 726.861450,145.297409 
	C726.669434,156.067520 726.448792,166.839127 726.527344,177.608292 
	C726.533752,178.480560 729.088501,180.328812 729.744812,180.048889 
	C736.804260,177.037552 743.387451,179.535843 750.151062,181.163574 
	C762.119507,184.043884 773.918213,183.900330 784.970398,177.645660 
	C798.630371,169.915176 804.646484,157.366959 801.268982,144.038620 
	C798.458557,132.948227 790.409363,126.522568 780.904236,121.557938 
	C770.030457,115.878433 758.840515,110.777451 748.162964,104.759651 
	C742.009521,101.291618 738.860718,95.124001 739.734192,87.951157 
	C740.546509,81.281021 745.352661,77.705811 751.546875,75.866791 
	C752.012451,75.728561 752.425171,75.412010 753.411621,75.295128 
	C753.925049,75.120766 754.438538,74.946404 755.881836,74.773224 
	C765.388428,73.462341 773.350708,76.742249 780.366882,83.556770 
M966.296814,70.897018 
	C961.855957,69.970940 957.415100,69.044853 952.403870,67.828476 
	C950.927063,67.853844 949.450317,67.879211 947.086365,67.663002 
	C942.751465,68.267960 938.416504,68.872910 933.451294,69.411278 
	C932.543396,69.889992 931.635559,70.368706 930.001648,70.949852 
	C920.963928,73.892708 914.433105,80.113899 908.769836,87.381210 
	C899.833618,98.848305 897.301636,112.275154 897.379456,126.360374 
	C897.471252,142.966095 901.471863,157.894089 914.155945,169.979919 
	C926.596985,181.834167 941.417969,184.521805 957.101868,181.679855 
	C974.464966,178.533630 991.535706,160.018356 991.109131,141.039841 
	C991.109131,141.039841 991.097717,140.874939 991.097717,140.874939 
	C991.097717,140.874939 991.135742,140.983261 990.600769,141.488602 
	C990.230469,141.108231 989.860229,140.727875 989.489868,140.347534 
	C989.624817,140.541611 989.899902,140.882050 989.873352,140.907547 
	C989.544617,141.222488 989.108459,141.438492 988.821533,141.781601 
	C987.610474,143.229767 986.154236,144.563705 985.301636,146.206207 
	C979.375854,157.621964 969.978271,164.328094 957.235474,164.288513 
	C939.428589,164.233215 926.670654,155.021729 919.381348,139.029633 
	C916.472656,132.648224 915.123718,125.473679 913.683167,118.531853 
	C912.578735,113.209267 914.161926,111.787926 919.870361,111.774612 
	C928.693726,111.754044 937.517883,111.950287 946.340881,111.903679 
	C959.153076,111.836006 971.968140,111.387398 984.774902,111.577774 
	C993.020020,111.700348 993.565796,111.658546 991.964172,103.517220 
	C989.270203,89.822899 982.832397,78.712669 969.170227,72.185944 
	C968.424744,71.899094 967.679321,71.612244 966.296814,70.897018 
M510.942657,13.284307 
	C509.975220,12.807527 509.007812,12.330748 507.521454,11.518298 
	C506.349854,11.686349 505.178284,11.854401 503.411835,12.013845 
	C502.924316,12.305169 502.436798,12.596494 501.173737,12.841769 
	C497.432129,14.553134 493.690521,16.264498 489.237549,18.058352 
	C486.172577,19.138182 483.107605,20.218012 479.332825,21.241953 
	C477.203217,22.350775 475.073578,23.459595 472.943970,24.568415 
	C473.077209,25.154486 473.210480,25.740557 473.343719,26.326628 
	C474.936615,26.326628 476.529480,26.326628 478.947754,26.369316 
	C482.944336,25.809702 486.512054,26.448603 489.044952,30.583920 
	C489.400299,31.045055 489.755646,31.506191 490.130341,32.737335 
	C490.358826,33.466373 490.587280,34.195415 490.588837,35.754292 
	C491.111694,44.487251 491.634521,53.220211 492.001068,62.809986 
	C492.034424,64.548569 492.067780,66.287148 491.794128,68.458794 
	C491.827179,69.316940 491.860260,70.175095 491.632782,71.723801 
	C491.278320,72.880287 490.923828,74.036781 490.529144,75.324402 
	C489.597260,74.938324 489.113647,74.814774 488.712677,74.560745 
	C473.191162,64.726723 457.563232,65.299789 442.322662,74.821968 
	C429.060089,83.108337 421.211731,95.647980 417.044281,110.486870 
	C410.967468,132.124283 413.887390,151.745178 429.874756,168.737137 
	C445.638153,185.491013 471.010803,186.558823 487.795502,170.695007 
	C488.921814,169.630524 490.196503,168.723083 492.727936,166.664474 
	C492.727936,170.282883 492.727936,172.316589 492.727936,174.350296 
	C492.727936,176.650909 492.727936,178.951523 492.727936,182.181229 
	C495.622345,181.799789 498.102417,181.876022 500.281738,181.103638 
	C505.133514,179.384125 509.808441,177.172821 514.605347,175.288971 
	C519.054810,173.541534 523.602600,172.040848 528.023193,170.226913 
	C528.800659,169.907898 529.164734,168.581421 529.719788,167.720230 
	C528.807434,167.196747 527.947449,166.470093 526.965454,166.216827 
	C526.236389,166.028824 525.351074,166.467621 524.531799,166.606186 
	C517.663391,167.767731 514.194092,165.774475 513.096924,158.947525 
	C512.314514,154.079086 512.609924,149.026352 512.552185,144.054367 
	C512.237671,116.988976 511.935699,89.923370 511.685211,62.857330 
	C511.543945,47.594677 511.510132,32.331032 511.590576,16.438374 
	C511.381775,15.629189 511.172974,14.820006 510.942657,13.284307 
M62.500843,18.186474 
	C53.438175,18.186474 44.375504,18.186474 34.999329,18.186474 
	C34.802345,30.810652 32.947868,42.434086 35.232807,54.207100 
	C37.010460,51.917866 37.837379,49.504993 38.383198,47.030128 
	C40.658123,36.715076 48.258343,28.670977 57.079292,28.054609 
	C65.856194,27.441320 74.679237,27.512175 83.465408,26.998453 
	C88.429527,26.708204 89.778336,29.036434 89.833595,33.538422 
	C90.104881,55.640186 90.676277,77.738510 90.902657,99.840500 
	C91.101913,119.294662 91.022659,138.752121 90.989807,158.208008 
	C90.976852,165.878815 85.337418,171.541306 77.616165,172.032028 
	C74.433144,172.234329 71.266319,172.691452 68.092125,173.032669 
	C68.113640,173.896072 68.135155,174.759491 68.156670,175.622910 
	C90.462639,177.011353 112.852074,175.785278 135.435287,175.853043 
	C133.883072,174.142380 132.097183,173.166656 130.238495,172.999237 
	C117.577217,171.858749 114.220261,168.618973 113.843147,155.932724 
	C113.373978,140.149307 113.155746,124.357681 112.923660,108.568214 
	C112.735390,95.759155 112.741264,82.947289 112.560738,70.138077 
	C112.380386,57.340176 111.933594,44.543079 112.018883,31.748400 
	C112.028671,30.279722 114.701813,27.576086 116.143646,27.573662 
	C125.269188,27.558315 134.455612,27.625631 143.505295,28.673309 
	C152.752945,29.743904 159.313980,35.100121 162.452362,44.117580 
	C163.326584,46.629456 163.706802,49.345882 164.825333,51.728222 
	C165.528656,53.226200 167.183945,54.277214 168.412140,55.528748 
	C168.929504,55.230938 169.446869,54.933132 169.964233,54.635323 
	C169.964233,52.518082 170.118927,50.387421 169.936569,48.286003 
	C169.264694,40.543423 168.138580,32.822792 167.861099,25.069643 
	C167.678467,19.967005 165.587296,18.658907 160.838364,18.711329 
	C145.199753,18.883949 129.556870,18.742216 113.916229,18.634699 
	C97.110550,18.519171 80.305542,18.305874 62.500843,18.186474 
z"/>
<path fill="#090809" opacity="1.000000" stroke="none" 
	d="
M511.427917,17.067831 
	C511.510132,32.331032 511.543945,47.594677 511.685211,62.857330 
	C511.935699,89.923370 512.237671,116.988976 512.552185,144.054367 
	C512.609924,149.026352 512.314514,154.079086 513.096924,158.947525 
	C514.194092,165.774475 517.663391,167.767731 524.531799,166.606186 
	C525.351074,166.467621 526.236389,166.028824 526.965454,166.216827 
	C527.947449,166.470093 528.807434,167.196747 529.719788,167.720215 
	C529.164734,168.581421 528.800659,169.907898 528.023193,170.226913 
	C523.602600,172.040848 519.054810,173.541534 514.605347,175.288971 
	C509.808441,177.172821 505.133514,179.384125 500.281738,181.103638 
	C498.102417,181.876022 495.622345,181.799789 492.727936,182.181229 
	C492.727936,178.951523 492.727936,176.650909 492.727936,174.350296 
	C492.727936,172.316589 492.727936,170.282883 492.727936,166.664474 
	C490.196503,168.723083 488.921814,169.630524 487.795502,170.695007 
	C471.010803,186.558823 445.638153,185.491013 429.874756,168.737137 
	C413.887390,151.745178 410.967468,132.124283 417.044281,110.486870 
	C421.211731,95.647980 429.060089,83.108337 442.322662,74.821968 
	C457.563232,65.299789 473.191162,64.726723 488.712677,74.560745 
	C489.113647,74.814774 489.597260,74.938324 490.529144,75.324402 
	C490.923828,74.036781 491.278320,72.880287 492.023193,71.210342 
	C492.309448,69.806503 492.205292,68.916115 492.101135,68.025726 
	C492.067780,66.287148 492.034424,64.548569 492.345734,62.125248 
	C492.764343,54.213497 492.965942,46.983810 492.814575,39.761520 
	C492.780487,38.135914 491.514587,36.536129 490.815765,34.924458 
	C490.587280,34.195415 490.358826,33.466373 490.342834,32.184952 
	C490.051514,31.082434 489.547699,30.532303 489.043915,29.982174 
	C486.512054,26.448603 482.944336,25.809702 478.415771,26.028101 
	C478.603424,24.223871 479.323029,22.760855 480.042633,21.297840 
	C483.107605,20.218012 486.172577,19.138182 490.003265,18.058990 
	C494.495758,16.335691 498.222504,14.611753 501.949280,12.887815 
	C502.436798,12.596494 502.924316,12.305169 503.933716,12.274744 
	C505.650543,12.308418 506.845459,12.081193 508.040375,11.853968 
	C509.007812,12.330748 509.975220,12.807527 510.717102,13.819498 
	C510.803680,15.259070 511.115814,16.163450 511.427917,17.067831 
M479.771423,79.616531 
	C466.195007,70.707748 449.584076,76.402763 443.380463,88.719620 
	C432.186035,110.945450 432.773804,133.093521 445.536377,154.539093 
	C452.917023,166.941177 470.565887,175.633789 486.193542,164.409058 
	C490.308075,161.453735 492.908386,158.497345 492.810638,153.139374 
	C492.514709,136.918579 492.933441,120.675957 492.280579,104.473808 
	C491.895142,94.908310 489.151398,85.825150 479.771423,79.616531 
M508.588348,15.517262 
	C508.588348,15.517262 508.477203,15.583676 508.588348,15.517262 
z"/>
<path fill="#090809" opacity="1.000000" stroke="none" 
	d="
M63.000542,18.160856 
	C80.305542,18.305874 97.110550,18.519171 113.916229,18.634699 
	C129.556870,18.742216 145.199753,18.883949 160.838364,18.711329 
	C165.587296,18.658907 167.678467,19.967005 167.861099,25.069643 
	C168.138580,32.822792 169.264694,40.543423 169.936569,48.286003 
	C170.118927,50.387421 169.964233,52.518082 169.964233,54.635323 
	C169.446869,54.933132 168.929504,55.230938 168.412140,55.528748 
	C167.183945,54.277214 165.528656,53.226200 164.825333,51.728222 
	C163.706802,49.345882 163.326584,46.629456 162.452362,44.117580 
	C159.313980,35.100121 152.752945,29.743904 143.505295,28.673309 
	C134.455612,27.625631 125.269188,27.558315 116.143646,27.573662 
	C114.701813,27.576086 112.028671,30.279722 112.018883,31.748400 
	C111.933594,44.543079 112.380386,57.340176 112.560738,70.138077 
	C112.741264,82.947289 112.735390,95.759155 112.923660,108.568214 
	C113.155746,124.357681 113.373978,140.149307 113.843147,155.932724 
	C114.220261,168.618973 117.577217,171.858749 130.238495,172.999237 
	C132.097183,173.166656 133.883072,174.142380 135.435287,175.853043 
	C112.852074,175.785278 90.462639,177.011353 68.156670,175.622910 
	C68.135155,174.759491 68.113640,173.896072 68.092125,173.032669 
	C71.266319,172.691452 74.433144,172.234329 77.616165,172.032028 
	C85.337418,171.541306 90.976852,165.878815 90.989807,158.208008 
	C91.022659,138.752121 91.101913,119.294662 90.902657,99.840500 
	C90.676277,77.738510 90.104881,55.640186 89.833595,33.538422 
	C89.778336,29.036434 88.429527,26.708204 83.465408,26.998453 
	C74.679237,27.512175 65.856194,27.441320 57.079292,28.054609 
	C48.258343,28.670977 40.658123,36.715076 38.383198,47.030128 
	C37.837379,49.504993 37.010460,51.917866 35.232807,54.207100 
	C32.947868,42.434086 34.802345,30.810652 34.999329,18.186474 
	C44.375504,18.186474 53.438175,18.186474 63.000542,18.160856 
z"/>
<path fill="#070607" opacity="1.000000" stroke="none" 
	d="
M300.098999,136.029083 
	C300.055328,134.614777 300.011688,133.200485 300.328339,131.105316 
	C301.443359,124.864128 302.846405,119.291794 302.743683,113.747353 
	C302.664398,109.466316 300.696686,105.220276 299.568604,100.958672 
	C299.409302,99.261314 299.249969,97.563957 299.445923,95.403030 
	C299.613129,94.286270 299.425049,93.633095 299.237000,92.979904 
	C299.159271,92.532921 299.081512,92.085930 299.268433,91.155090 
	C299.170074,90.101692 298.807098,89.532127 298.444092,88.962570 
	C297.193878,87.275230 295.943665,85.587875 294.340393,83.399452 
	C292.995758,82.907707 292.004211,82.917030 291.012695,82.926353 
	C290.795349,82.937401 290.578003,82.948441 289.938385,82.825302 
	C289.516113,82.691132 289.309875,82.835388 289.309875,82.835388 
	C289.085083,82.869965 288.860291,82.904541 288.109009,82.629944 
	C286.614868,82.099831 285.647217,81.878883 284.720184,81.667206 
	C285.649750,80.396332 286.380310,79.397514 287.110870,78.398697 
	C287.874237,78.014877 288.637604,77.631065 289.873383,77.439163 
	C290.930298,77.204140 291.514801,76.777199 292.099304,76.350258 
	C293.355469,75.807961 294.611633,75.265663 296.523956,74.791168 
	C297.827789,74.401611 298.475433,73.944260 299.123108,73.486908 
	C300.663177,72.875610 302.203278,72.264313 304.402435,71.710976 
	C305.736359,71.277931 306.411194,70.786934 307.086029,70.295929 
	C317.733307,65.881706 319.206573,67.018944 318.349060,78.655930 
	C318.102234,82.005661 318.311218,85.388992 318.311218,88.756920 
	C318.758423,88.907356 319.205627,89.057800 319.652863,89.208237 
	C321.148254,87.846313 322.643646,86.484383 324.799591,85.006859 
	C325.943115,84.220291 326.426117,83.549316 326.909088,82.878342 
	C326.909088,82.878342 326.975616,82.985405 327.258179,82.949310 
	C328.033325,82.286217 328.525970,81.659225 329.018585,81.032227 
	C329.018585,81.032227 329.001404,80.997704 329.382568,81.024071 
	C331.154266,79.669434 332.544769,78.288429 333.935303,76.907425 
	C333.935303,76.907425 333.982025,76.996696 334.270081,76.978867 
	C335.054291,76.347115 335.550415,75.733192 336.046509,75.119263 
	C337.791779,74.075729 339.537018,73.032204 341.851807,72.248726 
	C345.787292,72.649330 348.794037,72.126122 350.055359,68.377579 
	C350.801910,68.252037 351.548431,68.126503 352.936035,68.352547 
	C356.038971,68.519516 358.500824,68.334900 360.962677,68.150291 
	C371.631256,70.450783 378.690338,77.080292 381.856781,87.222900 
	C383.698334,93.121712 384.597839,99.503838 384.765289,105.699745 
	C385.222900,122.629234 385.055573,139.575378 385.158722,156.514771 
	C385.235840,169.180130 388.840393,173.487595 401.664368,176.900162 
	C399.892731,177.563354 398.119293,178.791702 396.349792,178.786102 
	C390.533142,178.767685 384.717926,178.301727 378.293274,177.770905 
	C377.128632,177.653534 376.572906,177.772995 376.017181,177.892456 
	C375.256836,177.920258 374.496460,177.948044 373.044556,177.684937 
	C368.523560,177.733154 364.694153,178.072266 360.864716,178.411377 
	C359.225159,178.443787 357.585632,178.476181 355.460175,178.151169 
	C354.304016,177.926758 353.633759,178.059769 352.963501,178.192780 
	C351.358887,177.908600 349.754272,177.624405 347.389954,177.205688 
	C352.283447,175.370605 356.180878,174.014313 359.993378,172.451050 
	C364.173096,170.737244 365.903442,167.329849 365.869385,162.972855 
	C365.740784,146.525467 365.661255,130.076782 365.365692,113.632133 
	C365.268127,108.204201 364.780334,102.761230 364.109802,97.370056 
	C362.542297,84.768303 353.448090,78.695190 341.260345,82.253807 
	C333.508026,84.517365 326.835388,88.833626 321.328522,94.756454 
	C320.178253,95.993622 319.083374,97.887383 319.073517,99.485405 
	C318.983459,114.099686 319.109589,128.715744 319.237793,143.330704 
	C319.285889,148.814682 319.711670,154.301361 319.599915,159.779358 
	C319.416168,168.784439 322.918365,173.039520 331.806030,174.118225 
	C332.950348,174.257111 334.141724,174.450241 335.173706,174.920303 
	C335.884979,175.244263 336.358887,176.089401 336.938873,176.701614 
	C336.243408,177.230087 335.565155,178.187256 334.849670,178.215942 
	C330.862122,178.375732 326.865112,178.354034 322.872162,178.313522 
	C313.886353,178.222366 304.901031,178.083755 295.157257,177.663605 
	C291.538788,177.187119 288.678589,177.011490 285.695435,176.828308 
	C286.287384,175.937286 286.716736,175.291016 287.146088,174.644730 
	C292.704681,173.251770 298.322510,171.930740 299.586151,164.354080 
	C300.612091,161.639969 301.187775,159.345673 301.760345,157.063889 
	C302.041016,157.140854 302.728149,157.329269 303.375977,157.506912 
	C302.906219,153.434692 301.619720,149.535217 302.270691,145.991653 
	C302.996979,142.038116 302.684631,138.956329 300.098999,136.029083 
M352.583252,70.508034 
	C352.583252,70.508034 352.477112,70.567986 352.583252,70.508034 
z"/>
<path fill="#0A090A" opacity="1.000000" stroke="none" 
	d="
M952.974243,68.118774 
	C957.415100,69.044853 961.855957,69.970940 966.691406,71.445831 
	C967.888672,72.233665 968.691467,72.472702 969.494202,72.711731 
	C982.832397,78.712669 989.270203,89.822899 991.964172,103.517220 
	C993.565796,111.658546 993.020020,111.700348 984.774902,111.577774 
	C971.968140,111.387398 959.153076,111.836006 946.340881,111.903679 
	C937.517883,111.950287 928.693726,111.754044 919.870361,111.774612 
	C914.161926,111.787926 912.578735,113.209267 913.683167,118.531853 
	C915.123718,125.473679 916.472656,132.648224 919.381348,139.029633 
	C926.670654,155.021729 939.428589,164.233215 957.235474,164.288513 
	C969.978271,164.328094 979.375854,157.621964 985.301636,146.206207 
	C986.154236,144.563705 987.610474,143.229767 988.821533,141.781601 
	C989.108459,141.438492 989.544617,141.222488 989.873352,140.907547 
	C989.899902,140.882050 989.624817,140.541611 989.489868,140.347519 
	C989.860229,140.727875 990.230469,141.108231 990.887329,141.195557 
	C991.173828,140.902496 991.219543,140.825775 991.219543,140.825775 
	C991.535706,160.018356 974.464966,178.533630 957.101868,181.679855 
	C941.417969,184.521805 926.596985,181.834167 914.155945,169.979919 
	C901.471863,157.894089 897.471252,142.966095 897.379456,126.360374 
	C897.301636,112.275154 899.833618,98.848305 908.769836,87.381210 
	C914.433105,80.113899 920.963928,73.892708 930.705688,70.973236 
	C932.300415,70.490379 933.191040,69.984146 934.081604,69.477890 
	C938.416504,68.872910 942.751465,68.267960 947.750854,68.054474 
	C949.934937,68.336884 951.454590,68.227829 952.974243,68.118774 
M957.987549,80.462486 
	C957.327515,80.296669 956.667480,80.130852 955.291809,79.881256 
	C951.929565,78.541183 948.666077,76.449875 945.187805,75.993050 
	C931.258728,74.163666 917.110596,85.232780 914.716492,99.351181 
	C913.772583,104.917465 914.493469,105.679726 920.162659,105.712990 
	C932.780640,105.787003 945.398132,105.946167 958.334351,106.525063 
	C959.258179,106.281586 960.182068,106.038101 961.872192,105.509216 
	C963.402588,104.700310 964.932922,103.891403 967.145630,102.928513 
	C969.739685,99.358681 967.283203,89.572243 962.621033,86.533730 
	C961.070923,84.709015 959.520813,82.884300 957.987549,80.462486 
z"/>
<path fill="#0B0A0B" opacity="1.000000" stroke="none" 
	d="
M257.426941,72.843826 
	C258.549011,73.344864 259.671051,73.845894 260.750793,74.892616 
	C260.465210,75.930077 260.221924,76.421844 259.978638,76.913612 
	C261.158295,77.068001 262.337982,77.222382 263.517639,77.376762 
	C263.517639,77.376762 263.507172,77.481903 263.419006,77.826859 
	C264.804047,79.139015 266.277283,80.106216 267.750519,81.073425 
	C275.526917,88.970871 278.067841,98.836975 279.076935,109.907448 
	C276.914032,110.180595 275.321228,110.554321 273.727814,110.556725 
	C254.257950,110.586044 234.783585,110.808540 215.319687,110.461098 
	C202.742508,110.236580 202.473831,109.882332 203.767166,122.155891 
	C205.441162,138.041901 213.070145,150.779358 227.100967,158.391510 
	C243.153290,167.100342 263.858826,163.168335 271.641266,145.364990 
	C272.306671,143.842834 272.970886,142.253433 273.985107,140.971771 
	C274.784760,139.961243 276.122498,139.376495 277.221283,138.602661 
	C277.789368,139.977615 279.128113,141.590271 278.790222,142.685852 
	C277.426300,147.108627 276.030670,151.645676 273.773468,155.648026 
	C262.337555,175.925491 244.485519,185.695953 220.604904,178.419510 
	C207.496826,174.425476 197.805847,165.148758 192.058578,152.354584 
	C185.532257,137.826096 185.369934,122.725830 188.363541,107.421310 
	C193.753342,79.866570 214.336960,66.885056 237.554504,67.447891 
	C239.607773,69.994904 241.251617,69.863388 244.015244,67.376495 
	C246.901199,68.305099 249.787140,69.233704 252.923996,70.826622 
	C254.592239,71.941902 256.009583,72.392860 257.426941,72.843826 
M228.510788,75.339935 
	C213.598114,76.833839 202.371201,89.254730 203.255981,103.793007 
	C205.291489,103.961266 207.398254,104.263535 209.508316,104.288635 
	C221.452042,104.430756 233.399063,104.389809 245.339996,104.644043 
	C253.922104,104.826767 255.446259,103.087914 253.396027,94.562195 
	C253.241211,93.918388 253.040512,93.283173 252.822845,92.657272 
	C248.950119,81.521027 241.095535,75.802376 228.510788,75.339935 
z"/>
<path fill="#090809" opacity="1.000000" stroke="none" 
	d="
M679.989868,181.675476 
	C678.601135,181.834991 677.212341,181.994537 675.154297,181.798248 
	C672.336975,181.586548 670.188904,181.730682 668.040894,181.874817 
	C666.629150,181.858887 665.217346,181.842957 663.358459,181.414459 
	C662.287598,180.959717 661.663818,180.917526 661.040100,180.875336 
	C660.572083,180.852646 660.104004,180.829971 659.205017,180.309143 
	C656.955383,179.287537 655.136719,178.764053 653.318054,178.240570 
	C653.318054,178.240570 652.827759,178.276932 652.827759,178.276932 
	C652.827759,178.276932 652.372437,178.091339 652.141968,177.594467 
	C649.906006,175.752945 647.900635,174.408310 645.541809,173.052994 
	C644.716675,173.068710 644.245056,173.095093 643.773376,173.121475 
	C642.318176,171.865555 640.862915,170.609634 639.264038,168.713608 
	C636.704712,165.737274 634.289124,163.401062 631.873535,161.064850 
	C631.584167,160.597855 631.294800,160.130844 631.037598,158.956848 
	C628.585693,152.133331 626.101746,146.016785 623.617798,139.900238 
	C623.432251,138.529770 623.246704,137.159317 623.350098,135.214905 
	C623.349182,133.725983 623.059387,132.811035 622.769592,131.896088 
	C622.664001,131.190796 622.558411,130.485504 622.905029,129.268555 
	C623.317139,125.855537 623.277039,122.954163 623.236877,120.052788 
	C623.316650,118.664909 623.396423,117.277023 623.882324,115.384872 
	C624.241211,113.931099 624.194031,112.981590 624.146851,112.032082 
	C624.714844,108.918503 625.282898,105.804924 626.430603,102.308517 
	C627.916809,99.460350 628.823303,96.995018 629.729736,94.529686 
	C630.418823,93.200798 631.107849,91.871902 632.345581,90.230835 
	C633.182556,89.137596 633.470825,88.356522 633.759155,87.575455 
	C644.528259,71.749931 671.592224,63.513931 688.437012,70.048576 
	C709.149414,78.083595 718.620239,98.028114 715.704773,111.678703 
	C698.178284,111.678703 680.605225,111.702698 663.032288,111.665146 
	C657.218079,111.652718 651.404114,111.398026 645.590271,111.406601 
	C639.688904,111.415298 638.790955,112.824547 639.255371,118.603180 
	C640.335876,132.048401 645.477295,143.587936 654.913757,154.008896 
	C655.871094,154.987381 656.627319,155.313416 657.383545,155.639465 
	C657.383545,155.639465 657.080200,155.878021 657.151733,156.121948 
	C658.633362,157.191864 660.043457,158.017822 661.453613,158.843781 
	C661.453613,158.843796 661.824768,158.780273 661.982239,159.299911 
	C663.185364,160.177170 664.231079,160.534805 665.276733,160.892426 
	C665.676147,160.964874 666.075562,161.037323 666.829834,161.601410 
	C670.118225,162.743637 673.051819,163.394211 675.985352,164.044785 
	C679.034973,164.043304 682.084595,164.041809 685.824585,164.336884 
	C691.144470,166.782272 695.345642,164.877869 698.974121,162.495682 
	C700.903564,161.228958 701.699951,158.236496 703.007751,156.022980 
	C703.429810,155.387390 703.851929,154.751801 704.920898,153.995438 
	C706.320129,152.411606 707.072510,150.948547 707.824829,149.485489 
	C708.123779,148.781479 708.422668,148.077469 709.288452,147.113007 
	C710.180847,146.067917 710.506470,145.283264 710.832031,144.498627 
	C710.832092,144.498627 710.785217,144.151138 711.278320,144.042114 
	C712.517883,142.725647 713.264282,141.518188 714.010742,140.310730 
	C714.872803,140.924057 715.734802,141.537399 716.195190,142.639160 
	C715.856201,143.749649 715.918762,144.371719 715.981323,144.993805 
	C713.247070,159.216827 704.125549,168.844147 692.259644,177.020050 
	C690.689697,177.623779 689.814819,178.204498 688.940002,178.785202 
	C686.865723,179.519745 684.791504,180.254303 682.180481,180.729340 
	C681.092468,180.871719 680.541138,181.273605 679.989868,181.675476 
M689.196899,90.526161 
	C688.755493,89.453270 688.505554,88.241287 687.842712,87.329315 
	C682.077209,79.396568 671.479736,73.119850 659.062805,77.321281 
	C649.134705,80.680580 639.974060,91.702454 639.609924,101.615051 
	C639.496582,104.699913 640.983093,105.258812 643.514038,105.253784 
	C658.274048,105.224464 673.034363,105.220085 687.794373,105.269264 
	C690.864990,105.279503 692.160645,103.682838 691.731384,100.913879 
	C691.225525,97.650978 690.288940,94.454849 689.196899,90.526161 
z"/>
<path fill="#0B0A0B" opacity="1.000000" stroke="none" 
	d="
M793.141541,72.948120 
	C793.234680,76.487022 793.387512,80.025581 793.407532,83.564896 
	C793.440918,89.466682 793.389282,95.368950 792.801636,101.635483 
	C791.458923,102.009972 790.687988,102.020012 789.917053,102.030045 
	C789.412781,100.991425 788.908508,99.952797 788.688293,98.424927 
	C788.563843,97.322304 788.155334,96.708939 787.746826,96.095558 
	C785.883240,92.612953 784.019592,89.130363 782.350342,85.111183 
	C781.801086,84.047058 781.057556,83.519524 780.313965,82.991989 
	C773.350708,76.742249 765.388428,73.462341 755.293701,74.575729 
	C754.091187,74.644936 753.476807,74.911636 752.862427,75.178345 
	C752.425171,75.412010 752.012451,75.728561 751.546875,75.866791 
	C745.352661,77.705811 740.546509,81.281021 739.734192,87.951157 
	C738.860718,95.124001 742.009521,101.291618 748.162964,104.759651 
	C758.840515,110.777451 770.030457,115.878433 780.904236,121.557938 
	C790.409363,126.522568 798.458557,132.948227 801.268982,144.038620 
	C804.646484,157.366959 798.630371,169.915176 784.970398,177.645660 
	C773.918213,183.900330 762.119507,184.043884 750.151062,181.163574 
	C743.387451,179.535843 736.804260,177.037552 729.744812,180.048889 
	C729.088501,180.328812 726.533752,178.480560 726.527344,177.608292 
	C726.448792,166.839127 726.669434,156.067520 726.861450,145.297409 
	C726.871948,144.706802 727.310059,144.123856 728.202820,141.933685 
	C730.110779,145.821426 731.990601,148.456619 732.741272,151.381622 
	C736.673645,166.704147 754.627197,177.823273 768.474609,175.625137 
	C775.872498,174.450806 781.406616,171.184174 783.937195,164.221909 
	C786.453674,157.298584 784.285278,150.785721 778.947571,146.142136 
	C774.365845,142.156296 768.886414,139.143402 763.610779,136.027313 
	C754.463989,130.624695 745.026855,125.705322 735.968933,120.162560 
	C723.771118,112.698387 722.199585,90.272354 733.960083,78.088249 
	C743.354980,68.354988 760.585327,65.017540 772.449707,70.763710 
	C776.899231,72.918709 781.664429,74.115662 787.344360,71.909447 
	C789.802185,72.342438 791.471863,72.645279 793.141541,72.948120 
z"/>
<path fill="#0B0B0B" opacity="1.000000" stroke="none" 
	d="
M840.048096,129.787766 
	C836.169067,127.702156 832.290039,125.616547 828.207642,122.909317 
	C825.652039,120.533760 823.299805,118.779823 820.947510,117.025909 
	C819.688232,115.556015 818.429016,114.086113 817.420044,112.102448 
	C816.960571,110.362976 816.250916,109.137268 815.541321,107.911560 
	C815.048218,106.509476 814.555176,105.107399 814.379150,103.097031 
	C815.786255,99.579659 817.776367,96.624489 814.259094,93.951355 
	C814.239746,93.526840 814.220398,93.102325 814.662476,92.327438 
	C817.010742,87.851234 818.897583,83.725410 820.784424,79.599564 
	C821.247925,79.063950 821.711426,78.528343 822.820679,77.960983 
	C824.455811,76.807793 825.445190,75.686371 826.434570,74.564941 
	C826.434570,74.564926 826.533020,74.522202 826.887451,74.618362 
	C828.185669,73.872597 829.129395,73.030670 830.073120,72.188736 
	C839.562256,66.424179 849.637634,66.729881 859.906189,69.381310 
	C862.795532,70.127365 865.604126,71.726059 868.483459,71.812645 
	C871.138733,71.892494 874.250916,71.062729 876.419983,69.561691 
	C879.417297,67.487511 880.721436,68.349182 881.412170,71.214157 
	C881.869995,73.113075 881.716797,75.175133 881.722656,77.164497 
	C881.748962,86.058769 881.734131,94.953163 881.734131,103.847511 
	C881.094849,104.012383 880.455566,104.177254 879.816284,104.342125 
	C879.094727,103.504356 878.149719,102.772919 877.691284,101.809875 
	C875.977417,98.208839 874.113586,94.634453 872.864380,90.864998 
	C868.474670,77.619240 849.753052,71.683815 838.354553,76.054077 
	C827.213684,80.325592 823.401123,92.104172 831.717285,100.753716 
	C835.945190,105.151138 841.674500,108.304001 847.129089,111.278877 
	C856.559326,116.421982 866.922791,120.064156 875.783386,125.996063 
	C892.300842,137.054092 894.955933,155.051804 883.250488,169.505280 
	C875.099548,179.569778 863.393738,183.682541 850.485291,182.793732 
	C843.236633,182.294632 836.008423,180.801025 828.906128,179.167755 
	C825.347412,178.349380 822.211731,177.659027 818.948730,179.783966 
	C816.974060,181.069916 814.482849,181.025513 814.416748,178.325302 
	C814.138123,166.951233 814.298828,155.566406 814.298828,144.185516 
	C814.863586,143.921219 815.428345,143.656921 815.993103,143.392624 
	C817.340759,145.676529 819.106140,147.814438 819.964294,150.269440 
	C823.819763,161.298996 830.353271,169.671341 841.477539,174.246613 
	C849.555176,177.568817 865.753296,176.896790 870.699219,166.553055 
	C873.437378,160.826523 873.033264,153.417969 868.902405,148.417664 
	C862.420105,140.570786 853.082092,137.076248 844.269775,131.791412 
	C842.681091,130.742706 841.364563,130.265228 840.048096,129.787766 
z"/>
<path fill="#090809" opacity="1.000000" stroke="none" 
	d="
M554.158508,162.036087 
	C554.191284,159.336594 554.224121,156.637115 554.684692,153.375504 
	C555.718323,148.588593 556.324158,144.363800 556.924316,139.820847 
	C556.365540,139.005692 555.812622,138.508713 555.220215,137.676498 
	C555.179443,136.891434 555.178101,136.441589 555.491333,135.930191 
	C555.536499,134.912628 555.267029,133.956635 554.765137,132.993164 
	C554.532776,132.985672 554.068604,133.012924 554.068604,133.012924 
	C554.043213,131.610016 554.017822,130.207123 554.321533,128.427444 
	C554.817993,128.038010 554.985352,128.025345 555.427734,127.961655 
	C555.995178,127.597580 556.287659,127.284515 556.580139,126.971458 
	C556.112793,126.650146 555.645508,126.328827 555.141602,125.551537 
	C555.392578,119.404419 555.679993,113.713280 556.222412,107.824677 
	C556.020020,106.759346 555.562683,105.891457 555.071899,104.588074 
	C554.629089,101.750984 554.219666,99.349388 553.810303,96.947800 
	C553.699219,96.244949 553.588135,95.542114 553.841797,94.322411 
	C553.829346,92.532722 553.452209,91.259903 553.075073,89.987076 
	C552.173889,88.442200 551.272766,86.897324 550.215698,84.683350 
	C550.030334,83.012985 550.000916,82.011719 550.251831,80.762756 
	C550.688110,79.016251 550.844055,77.517456 551.000000,76.018661 
	C551.000000,76.018661 551.322693,75.814201 551.887573,75.875046 
	C553.301636,75.282013 554.150818,74.628128 555.000000,73.974258 
	C555.705383,73.587433 556.410828,73.200607 557.734741,72.972137 
	C559.237122,72.529747 560.120972,71.928986 561.004761,71.328224 
	C561.792969,70.947350 562.581238,70.566490 563.858276,70.377403 
	C564.895874,70.706551 565.444580,70.843925 566.188599,71.234383 
	C567.250305,71.014374 568.116760,70.541267 569.336914,70.051208 
	C570.632507,70.054611 571.574463,70.074974 572.516357,70.095345 
	C572.611816,70.826782 572.707336,71.558212 572.343262,72.656158 
	C571.308838,73.601532 570.734009,74.180389 570.159119,74.759247 
	C570.906006,75.177315 571.652893,75.595398 572.399780,76.013489 
	C572.556458,79.753578 572.713135,83.493668 572.920288,88.031853 
	C574.007324,88.619026 575.044006,88.408104 576.080627,88.197174 
	C576.553162,87.567337 577.025696,86.937500 578.110474,86.136673 
	C580.045105,83.804817 581.367432,81.643951 582.689697,79.483078 
	C582.689697,79.483078 582.759216,79.159149 583.264160,79.098267 
	C584.873413,77.810379 585.977600,76.583382 587.081787,75.356384 
	C587.335144,75.039337 587.588440,74.722298 588.425781,74.273727 
	C589.684387,73.474953 590.359009,72.807701 591.033630,72.140457 
	C591.033630,72.140457 591.272583,71.839058 591.881226,71.894974 
	C595.693542,72.420807 598.331726,71.569336 600.102966,68.692467 
	C600.499390,68.548599 600.895752,68.404739 601.651611,68.624825 
	C603.039429,68.862518 604.067810,68.736267 605.096130,68.610016 
	C608.014160,70.134399 610.932190,71.658775 613.923828,73.809280 
	C614.558105,74.978691 615.118713,75.521980 615.679321,76.065262 
	C617.966919,80.574242 617.453613,84.814041 613.978027,88.410263 
	C610.364441,92.149300 606.492798,92.407272 601.256409,89.600723 
	C599.213257,88.505653 597.271362,87.220207 595.293579,86.004929 
	C590.167908,82.855469 586.106995,83.685921 582.203735,87.821182 
	C574.689148,95.782478 572.186523,105.047394 572.965210,115.831383 
	C573.693298,125.914772 573.447021,136.068512 573.187195,146.734528 
	C573.046265,149.186218 573.347778,151.094666 573.649292,153.003113 
	C573.696655,154.492126 573.863892,155.988586 573.771484,157.468872 
	C573.261841,165.634750 576.884521,171.041702 584.810913,174.362061 
	C585.712646,174.979919 586.332642,175.058975 586.952698,175.138046 
	C587.530457,175.112259 588.108276,175.086487 588.864746,175.606445 
	C587.702454,177.081833 586.361511,178.011505 585.020569,178.941162 
	C577.983643,178.982758 570.946655,179.024353 563.346924,178.570297 
	C559.175842,177.527969 555.567566,176.981293 551.856384,176.419037 
	C551.576782,174.739731 551.256653,172.817108 550.936523,170.894485 
	C550.936523,170.894485 550.969482,170.980682 551.300659,170.941956 
	C552.741150,169.574600 553.850586,168.245956 554.971313,166.545990 
	C554.708008,164.795135 554.433289,163.415604 554.158508,162.036087 
z"/>
<path fill="#191718" opacity="1.000000" stroke="none" 
	d="
M980.944092,37.897964 
	C983.442871,32.542686 987.640503,29.191706 993.606201,27.884613 
	C993.977600,28.842642 993.973572,29.399994 993.669128,30.099220 
	C992.696594,31.065144 992.024475,31.889189 991.051575,33.081924 
	C992.475830,33.453201 993.366760,33.743046 994.280029,33.913013 
	C997.336243,34.481789 1000.467773,34.767761 1003.446533,35.603649 
	C1008.506348,37.023487 1008.780212,40.684761 1004.224182,46.982323 
	C1004.158325,47.703846 1004.343933,48.380322 1004.649658,49.411736 
	C1004.837341,50.512711 1004.905029,51.258747 1004.693115,52.130043 
	C1003.643799,52.492519 1002.874207,52.729733 1001.810303,52.814926 
	C1000.344849,51.778503 999.173645,50.894093 997.703003,49.869102 
	C997.050232,50.165195 996.696960,50.601871 996.249268,51.424980 
	C996.581421,53.792568 997.007935,55.773727 997.493225,58.027542 
	C995.776611,58.425152 994.392700,58.745693 992.704285,58.982697 
	C992.189209,58.904209 991.978760,58.909267 991.449097,58.869484 
	C990.213562,58.984756 989.297241,59.144867 988.231079,59.331158 
	C988.475037,58.277542 988.656677,57.493000 989.055664,56.404945 
	C989.877869,51.403145 990.797485,46.713490 990.926514,42.002182 
	C990.975525,40.212795 989.205872,38.373585 988.265137,36.557098 
	C986.807678,37.695251 985.350220,38.833389 983.576111,39.985710 
	C982.487671,39.299255 981.715881,38.598618 980.944092,37.897964 
M997.695984,44.521358 
	C1001.266724,45.284401 1002.896057,43.199696 1002.590454,40.215302 
	C1002.447937,38.823059 1000.257324,36.612965 998.931030,36.565655 
	C995.219238,36.433247 995.911438,39.695213 995.904541,42.066578 
	C995.902527,42.757023 996.616638,43.449547 997.695984,44.521358 
z"/>
<path fill="#090909" opacity="1.000000" stroke="none" 
	d="
M550.650574,170.938873 
	C551.256653,172.817108 551.576782,174.739731 551.856384,176.419037 
	C555.567566,176.981293 559.175842,177.527969 562.891602,178.451050 
	C554.435730,178.827454 545.872375,178.827454 536.693970,178.827454 
	C537.902649,172.559204 544.037354,176.353333 546.541687,173.665070 
	C546.327209,174.746078 545.818970,175.469223 544.954834,176.698746 
	C546.822632,176.698746 547.998962,176.698746 549.301636,176.698746 
	C549.134033,175.138260 548.997742,173.868988 548.861389,172.599716 
	C549.362488,172.060898 549.863525,171.522079 550.650574,170.938873 
z"/>
<path fill="#746F74" opacity="1.000000" stroke="none" 
	d="
M993.969543,29.957344 
	C993.973572,29.399994 993.977600,28.842642 994.013489,27.868290 
	C1003.970581,25.107464 1011.868958,28.189516 1017.531189,36.761757 
	C1016.654663,37.626980 1016.116943,38.081348 1015.303345,38.344620 
	C1010.959106,31.985735 1005.398865,28.991816 997.893921,29.984682 
	C996.609497,30.154613 995.278870,29.975309 993.969543,29.957344 
z"/>
<path fill="#191718" opacity="1.000000" stroke="none" 
	d="
M299.942627,136.340042 
	C302.684631,138.956329 302.996979,142.038116 302.270691,145.991653 
	C301.619720,149.535217 302.906219,153.434692 303.375977,157.506912 
	C302.728149,157.329269 302.041016,157.140854 301.760345,157.063889 
	C301.187775,159.345673 300.612091,161.639969 299.706177,163.983795 
	C299.512726,154.905899 299.649506,145.778442 299.942627,136.340042 
M301.425781,141.481232 
	C301.425781,141.481232 301.535004,141.413651 301.425781,141.481232 
z"/>
<path fill="#323031" opacity="1.000000" stroke="none" 
	d="
M1002.104553,52.966957 
	C1002.874207,52.729733 1003.643799,52.492519 1004.994873,52.290775 
	C1008.444702,53.903915 1009.670044,59.807251 1015.187866,55.862450 
	C1016.405457,56.028244 1017.102905,56.111294 1017.800293,56.194328 
	C1016.086975,58.125198 1014.373657,60.056084 1012.033447,62.056976 
	C1010.970093,62.524822 1010.533630,62.922661 1010.097168,63.320511 
	C1009.629211,63.256634 1009.161316,63.192741 1008.267822,62.836178 
	C1007.808777,62.353180 1007.775208,62.162849 1007.904297,61.604973 
	C1007.517883,60.130722 1007.120361,58.908890 1006.386475,57.942558 
	C1005.065491,56.203266 1003.542908,54.617100 1002.104553,52.966957 
z"/>
<path fill="#191718" opacity="1.000000" stroke="none" 
	d="
M299.483337,101.316238 
	C300.696686,105.220276 302.664398,109.466316 302.743683,113.747353 
	C302.846405,119.291794 301.443359,124.864128 300.416016,130.687988 
	C299.959534,129.039444 299.644073,127.129356 299.614868,125.214912 
	C299.495148,117.368599 299.462646,109.520966 299.483337,101.316238 
z"/>
<path fill="#575257" opacity="1.000000" stroke="none" 
	d="
M1018.081909,55.989693 
	C1017.102905,56.111294 1016.405457,56.028244 1015.364990,55.524914 
	C1018.222900,49.683075 1017.173706,44.118580 1015.579224,38.535728 
	C1016.116943,38.081348 1016.654663,37.626980 1017.547058,37.100365 
	C1020.753845,43.213997 1021.575745,49.449863 1018.081909,55.989693 
z"/>
<path fill="#262426" opacity="1.000000" stroke="none" 
	d="
M490.702301,35.339375 
	C491.514587,36.536129 492.780487,38.135914 492.814575,39.761520 
	C492.965942,46.983810 492.764343,54.213497 492.423889,61.696838 
	C491.634521,53.220211 491.111694,44.487251 490.702301,35.339375 
z"/>
<path fill="#0F0E0F" opacity="1.000000" stroke="none" 
	d="
M702.669739,156.091278 
	C701.699951,158.236496 700.903564,161.228958 698.974121,162.495682 
	C695.345642,164.877869 691.144470,166.782272 686.281311,164.380890 
	C691.636536,161.800903 698.090637,161.241348 702.669739,156.091278 
z"/>
<path fill="#423E41" opacity="1.000000" stroke="none" 
	d="
M980.619263,38.112724 
	C981.715881,38.598618 982.487671,39.299255 983.551086,40.401009 
	C983.622253,44.561207 983.401794,48.320286 982.671875,52.121609 
	C981.518066,52.382309 980.873718,52.600769 980.229370,52.819229 
	C977.422180,47.975937 978.410461,43.149693 980.619263,38.112724 
z"/>
<path fill="#323031" opacity="1.000000" stroke="none" 
	d="
M623.587830,140.279434 
	C626.101746,146.016785 628.585693,152.133331 631.011597,158.668610 
	C628.488281,152.944443 626.023071,146.801529 623.587830,140.279434 
z"/>
<path fill="#262426" opacity="1.000000" stroke="none" 
	d="
M555.152710,128.012665 
	C554.985352,128.025345 554.817993,128.038010 554.401733,128.013412 
	C554.073303,121.592850 553.993896,115.209549 554.331665,108.406067 
	C555.155090,107.997971 555.561279,108.010056 555.967468,108.022141 
	C555.679993,113.713280 555.392578,119.404419 555.098755,125.884338 
	C555.112488,127.119621 555.132568,127.566147 555.152710,128.012665 
z"/>
<path fill="#090909" opacity="1.000000" stroke="none" 
	d="
M550.627319,75.926384 
	C550.844055,77.517456 550.688110,79.016251 549.913269,80.755188 
	C546.820312,80.220840 545.552063,80.930969 545.959534,83.704063 
	C544.911560,83.757057 543.863525,83.810059 542.440063,83.429245 
	C542.393433,81.453293 542.722168,79.911148 543.050903,78.369011 
	C543.406860,78.200592 543.762756,78.032173 544.766357,77.930695 
	C546.292053,77.452049 547.169983,76.906456 548.047974,76.360863 
	C548.783508,76.185280 549.519104,76.009689 550.627319,75.926384 
z"/>
<path fill="#262426" opacity="1.000000" stroke="none" 
	d="
M556.930054,140.139008 
	C556.324158,144.363800 555.718323,148.588593 554.760498,152.932739 
	C554.278870,148.945343 554.149109,144.838577 554.498962,140.329132 
	C555.629028,139.997299 556.279541,140.068146 556.930054,140.139008 
z"/>
<path fill="#423E41" opacity="1.000000" stroke="none" 
	d="
M988.838318,56.708458 
	C988.656677,57.493000 988.475037,58.277542 988.231079,59.331158 
	C989.297241,59.144867 990.213562,58.984756 991.366028,59.261230 
	C991.701416,60.214581 991.800598,60.731358 991.837402,61.612236 
	C991.333984,62.546894 990.892944,63.117447 990.451843,63.688004 
	C987.957275,61.699902 985.462769,59.711800 983.282166,57.366982 
	C984.161743,56.925915 984.727356,56.841568 985.647522,56.790352 
	C986.947510,56.785145 987.892883,56.746799 988.838318,56.708458 
z"/>
<path fill="#423E41" opacity="1.000000" stroke="none" 
	d="
M286.815918,174.574280 
	C286.716736,175.291016 286.287384,175.937286 285.695435,176.828308 
	C288.678589,177.011490 291.538788,177.187119 294.688293,177.628387 
	C292.124298,178.093201 289.265808,178.472397 286.420685,178.390121 
	C285.474457,178.362747 284.562469,177.151367 283.634827,176.481293 
	C284.585144,175.822144 285.535461,175.162994 286.815918,174.574280 
z"/>
<path fill="#262426" opacity="1.000000" stroke="none" 
	d="
M542.705139,78.335495 
	C542.722168,79.911148 542.393433,81.453293 542.054626,83.343079 
	C540.000610,83.690720 537.956543,83.690720 535.912537,83.690720 
	C535.706299,83.142815 535.500061,82.594910 535.293823,82.047005 
	C537.648987,80.798668 540.004211,79.550331 542.705139,78.335495 
z"/>
<path fill="#323031" opacity="1.000000" stroke="none" 
	d="
M820.455688,79.713867 
	C818.897583,83.725410 817.010742,87.851234 814.780273,92.029060 
	C816.333374,87.996758 818.230164,83.912453 820.455688,79.713867 
z"/>
<path fill="#746F74" opacity="1.000000" stroke="none" 
	d="
M990.688965,63.966904 
	C990.892944,63.117447 991.333984,62.546894 992.081299,61.602196 
	C992.387573,61.228050 992.874878,61.255913 993.050171,61.509422 
	C994.139526,62.205574 995.053650,62.648212 996.100952,63.371426 
	C996.831360,63.714977 997.428711,63.777958 998.352661,63.890171 
	C999.103516,63.847633 999.527832,63.755871 1000.301331,63.650803 
	C1001.116394,63.644032 1001.582153,63.650562 1002.252563,63.780594 
	C1002.457153,63.904099 1002.911255,64.053047 1002.851868,64.351135 
	C1002.205627,65.132286 1001.618835,65.615349 1001.031982,66.098427 
	C997.663330,65.480888 994.294739,64.863350 990.688965,63.966904 
z"/>
<path fill="#262426" opacity="1.000000" stroke="none" 
	d="
M501.561523,12.864792 
	C498.222504,14.611753 494.495758,16.335691 490.358948,18.017746 
	C493.690521,16.264498 497.432129,14.553134 501.561523,12.864792 
z"/>
<path fill="#262426" opacity="1.000000" stroke="none" 
	d="
M479.687744,21.269897 
	C479.323029,22.760855 478.603424,24.223871 478.003082,26.006756 
	C476.529480,26.326628 474.936615,26.326628 473.343719,26.326628 
	C473.210480,25.740557 473.077209,25.154486 472.943970,24.568415 
	C475.073578,23.459595 477.203217,22.350775 479.687744,21.269897 
z"/>
<path fill="#423E41" opacity="1.000000" stroke="none" 
	d="
M286.762146,78.367073 
	C286.380310,79.397514 285.649750,80.396332 284.720184,81.667206 
	C285.647217,81.878883 286.614868,82.099831 287.772858,82.571945 
	C285.824921,82.823112 283.686646,82.823112 281.548340,82.823112 
	C281.388947,82.380211 281.229553,81.937309 281.070160,81.494408 
	C282.851257,80.441422 284.632324,79.388435 286.762146,78.367073 
z"/>
<path fill="#EAE6E9" opacity="1.000000" stroke="none" 
	d="
M1001.275635,66.360901 
	C1001.618835,65.615349 1002.205627,65.132286 1003.141846,64.159164 
	C1004.908081,63.103588 1006.324829,62.538059 1007.741638,61.972527 
	C1007.775208,62.162849 1007.808777,62.353180 1007.911865,62.824982 
	C1007.539917,67.425629 1004.400330,66.787025 1001.275635,66.360901 
z"/>
<path fill="#423E41" opacity="1.000000" stroke="none" 
	d="
M361.308807,178.550766 
	C364.694153,178.072266 368.523560,177.733154 372.665741,177.645752 
	C369.236633,178.161713 365.494751,178.425934 361.308807,178.550766 
z"/>
<path fill="#262426" opacity="1.000000" stroke="none" 
	d="
M349.702759,68.328880 
	C348.794037,72.126122 345.787292,72.649330 342.206299,72.240387 
	C344.444214,70.741394 346.897186,69.510788 349.702759,68.328880 
z"/>
<path fill="#323031" opacity="1.000000" stroke="none" 
	d="
M631.927551,161.400818 
	C634.289124,163.401062 636.704712,165.737274 639.106445,168.426208 
	C636.722229,166.431534 634.351868,164.084152 631.927551,161.400818 
z"/>
<path fill="#323031" opacity="1.000000" stroke="none" 
	d="
M814.135254,94.346199 
	C817.776367,96.624489 815.786255,99.579659 814.420898,102.725372 
	C814.100830,100.221687 814.056091,97.481369 814.135254,94.346199 
z"/>
<path fill="#323031" opacity="1.000000" stroke="none" 
	d="
M599.744385,68.618698 
	C598.331726,71.569336 595.693542,72.420807 592.072815,71.878494 
	C594.232483,70.719040 596.809143,69.631981 599.744385,68.618698 
z"/>
<path fill="#0D0C0E" opacity="1.000000" stroke="none" 
	d="
M793.155273,72.569893 
	C791.471863,72.645279 789.802185,72.342438 787.730347,71.874634 
	C789.496033,69.193878 791.688599,66.377853 793.155273,72.569893 
z"/>
<path fill="#323031" opacity="1.000000" stroke="none" 
	d="
M623.037964,120.393982 
	C623.277039,122.954163 623.317139,125.855537 623.048096,128.935074 
	C622.772278,126.320549 622.805664,123.527863 623.037964,120.393982 
z"/>
<path fill="#323031" opacity="1.000000" stroke="none" 
	d="
M821.017944,117.356361 
	C823.299805,118.779823 825.652039,120.533760 828.004211,122.639359 
	C825.698853,121.222961 823.393616,119.454895 821.017944,117.356361 
z"/>
<path fill="#262426" opacity="1.000000" stroke="none" 
	d="
M553.692749,97.301300 
	C554.219666,99.349388 554.629089,101.750984 554.815002,104.593292 
	C554.421814,105.016434 554.252136,104.998856 554.082458,104.981285 
	C553.913452,102.539116 553.744385,100.096954 553.692749,97.301300 
z"/>
<path fill="#262426" opacity="1.000000" stroke="none" 
	d="
M360.643066,67.955582 
	C358.500824,68.334900 356.038971,68.519516 353.311310,68.429871 
	C355.471497,68.024048 357.897461,67.892464 360.643066,67.955582 
z"/>
<path fill="#0F0E0F" opacity="1.000000" stroke="none" 
	d="
M675.679443,163.858826 
	C673.051819,163.394211 670.118225,162.743637 667.084778,161.773956 
	C669.781067,162.194214 672.577271,162.933533 675.679443,163.858826 
z"/>
<path fill="#0F0E0F" opacity="1.000000" stroke="none" 
	d="
M645.895264,173.063644 
	C647.900635,174.408310 649.906006,175.752945 651.959595,177.429611 
	C650.152893,176.977142 648.297974,176.192657 646.263733,174.826355 
	C646.021362,173.850906 645.958313,173.457275 645.895264,173.063644 
z"/>
<path fill="#262426" opacity="1.000000" stroke="none" 
	d="
M546.292358,83.822739 
	C545.552063,80.930969 546.820312,80.220840 549.632935,81.002892 
	C550.000916,82.011719 550.030334,83.012985 550.050049,84.390137 
	C548.901855,84.491158 547.763489,84.216286 546.292358,83.822739 
z"/>
<path fill="#090909" opacity="1.000000" stroke="none" 
	d="
M585.305176,179.136688 
	C586.361511,178.011505 587.702454,177.081833 589.112244,175.771606 
	C589.952942,175.470642 590.724854,175.550232 591.394470,176.422211 
	C591.237854,177.932541 591.183411,178.650482 591.129028,179.368439 
	C589.282593,179.356354 587.436157,179.344269 585.305176,179.136688 
z"/>
<path fill="#323031" opacity="1.000000" stroke="none" 
	d="
M582.368774,79.601410 
	C581.367432,81.643951 580.045105,83.804817 578.367065,85.985443 
	C579.356873,83.910057 580.702393,81.814896 582.368774,79.601410 
z"/>
<path fill="#0F0E0F" opacity="1.000000" stroke="none" 
	d="
M668.356079,182.033234 
	C670.188904,181.730682 672.336975,181.586548 674.740967,181.716980 
	C672.888428,182.058228 670.779846,182.124939 668.356079,182.033234 
z"/>
<path fill="#131212" opacity="1.000000" stroke="none" 
	d="
M243.597702,67.257996 
	C241.251617,69.863388 239.607773,69.994904 238.004654,67.511505 
	C239.722046,67.157532 241.451111,67.148514 243.597702,67.257996 
z"/>
<path fill="#090809" opacity="1.000000" stroke="none" 
	d="
M548.535767,172.702545 
	C548.997742,173.868988 549.134033,175.138260 549.301636,176.698746 
	C547.998962,176.698746 546.822632,176.698746 544.954834,176.698746 
	C545.818970,175.469223 546.327209,174.746078 546.914551,173.724472 
	C547.399170,173.219147 547.804688,173.012253 548.535767,172.702545 
z"/>
<path fill="#746F74" opacity="1.000000" stroke="none" 
	d="
M985.292969,56.757210 
	C984.727356,56.841568 984.161743,56.925915 983.167542,57.029503 
	C981.890076,55.860970 981.041199,54.673195 980.210815,53.152328 
	C980.873718,52.600769 981.518066,52.382309 982.862244,52.317223 
	C983.457275,52.789928 983.352478,53.109264 983.082764,53.663109 
	C983.143127,54.258102 983.368469,54.618591 983.881104,54.818924 
	C984.543274,55.358246 984.918152,56.057728 985.292969,56.757210 
z"/>
<path fill="#323031" opacity="1.000000" stroke="none" 
	d="
M629.424438,94.703125 
	C628.823303,96.995018 627.916809,99.460350 626.673096,101.997955 
	C627.263611,99.672348 628.191345,97.274460 629.424438,94.703125 
z"/>
<path fill="#090909" opacity="1.000000" stroke="none" 
	d="
M554.959961,166.917328 
	C553.850586,168.245956 552.741150,169.574600 551.260742,170.918854 
	C551.467285,169.781967 552.044861,168.629486 553.178040,167.269897 
	C554.142395,167.014297 554.551208,166.965805 554.959961,166.917328 
z"/>
<path fill="#262426" opacity="1.000000" stroke="none" 
	d="
M333.593628,76.934860 
	C332.544769,78.288429 331.154266,79.669434 329.398590,81.035156 
	C330.439575,79.667351 331.845764,78.314827 333.593628,76.934860 
z"/>
<path fill="#090909" opacity="1.000000" stroke="none" 
	d="
M573.760803,152.581543 
	C573.347778,151.094666 573.046265,149.186218 573.043762,147.135345 
	C573.519226,148.715302 573.695740,150.437653 573.760803,152.581543 
z"/>
<path fill="#090909" opacity="1.000000" stroke="none" 
	d="
M568.983276,70.068176 
	C568.116760,70.541267 567.250305,71.014374 566.202393,70.924026 
	C566.023560,69.946869 566.026245,69.533150 566.028931,69.119431 
	C566.795715,68.885506 567.562561,68.651581 568.581970,68.793106 
	C568.925598,69.461594 568.975159,69.761467 568.983276,70.068176 
z"/>
<path fill="#323031" opacity="1.000000" stroke="none" 
	d="
M586.771851,75.415520 
	C585.977600,76.583382 584.873413,77.810379 583.413696,79.026855 
	C584.192749,77.835770 585.327332,76.655212 586.771851,75.415520 
z"/>
<path fill="#131212" opacity="1.000000" stroke="none" 
	d="
M267.689453,80.760406 
	C266.277283,80.106216 264.804047,79.139015 263.471741,77.824257 
	C264.951263,78.466934 266.289795,79.457169 267.689453,80.760406 
z"/>
<path fill="#323031" opacity="1.000000" stroke="none" 
	d="
M952.689087,67.973625 
	C951.454590,68.227829 949.934937,68.336884 948.194397,68.175255 
	C949.450317,67.879211 950.927063,67.853844 952.689087,67.973625 
z"/>
<path fill="#090909" opacity="1.000000" stroke="none" 
	d="
M572.519714,75.647659 
	C571.652893,75.595398 570.906006,75.177315 570.159119,74.759247 
	C570.734009,74.180389 571.308838,73.601532 572.207031,73.007111 
	C572.566711,73.754982 572.603149,74.518410 572.519714,75.647659 
z"/>
<path fill="#090909" opacity="1.000000" stroke="none" 
	d="
M554.027344,105.354347 
	C554.252136,104.998856 554.421814,105.016434 554.848389,105.028793 
	C555.562683,105.891457 556.020020,106.759346 556.222412,107.824684 
	C555.561279,108.010056 555.155090,107.997971 554.443848,107.982224 
	C554.083252,107.228165 554.027771,106.477791 554.027344,105.354347 
z"/>
<path fill="#323031" opacity="1.000000" stroke="none" 
	d="
M815.465698,108.232605 
	C816.250916,109.137268 816.960571,110.362976 817.421265,111.771103 
	C816.578247,110.820221 815.984131,109.686928 815.465698,108.232605 
z"/>
<path fill="#323031" opacity="1.000000" stroke="none" 
	d="
M840.264221,130.041885 
	C841.364563,130.265228 842.681091,130.742706 844.022827,131.552216 
	C842.858887,131.354843 841.669617,130.825424 840.264221,130.041885 
z"/>
<path fill="#0F0E0F" opacity="1.000000" stroke="none" 
	d="
M713.695374,140.192139 
	C713.264282,141.518188 712.517883,142.725647 711.437256,143.968140 
	C711.862061,142.693314 712.621033,141.383423 713.695374,140.192139 
z"/>
<path fill="#0F0E0F" opacity="1.000000" stroke="none" 
	d="
M661.285278,158.553391 
	C660.043457,158.017822 658.633362,157.191864 657.288452,155.985855 
	C658.608154,156.491547 659.862610,157.377274 661.285278,158.553391 
z"/>
<path fill="#262426" opacity="1.000000" stroke="none" 
	d="
M554.971313,166.545990 
	C554.551208,166.965805 554.142395,167.014297 553.424744,167.053955 
	C553.357605,165.526810 553.599365,164.008499 553.999817,162.263138 
	C554.433289,163.415604 554.708008,164.795135 554.971313,166.545990 
z"/>
<path fill="#0F0E0F" opacity="1.000000" stroke="none" 
	d="
M653.533569,178.527969 
	C655.136719,178.764053 656.955383,179.287537 658.895630,180.132690 
	C657.261169,179.908051 655.505066,179.361710 653.533569,178.527969 
z"/>
<path fill="#323031" opacity="1.000000" stroke="none" 
	d="
M826.132080,74.656998 
	C825.445190,75.686371 824.455811,76.807793 823.078796,77.881989 
	C823.737305,76.806183 824.783447,75.777611 826.132080,74.656998 
z"/>
<path fill="#262426" opacity="1.000000" stroke="none" 
	d="
M507.780914,11.686132 
	C506.845459,12.081193 505.650543,12.308418 504.231140,12.279047 
	C505.178284,11.854401 506.349854,11.686349 507.780914,11.686132 
z"/>
<path fill="#262426" opacity="1.000000" stroke="none" 
	d="
M553.000244,90.338013 
	C553.452209,91.259903 553.829346,92.532722 553.867188,93.962914 
	C553.327087,92.976501 553.126221,91.832726 553.000244,90.338013 
z"/>
<path fill="#262426" opacity="1.000000" stroke="none" 
	d="
M553.909851,133.287170 
	C554.068604,133.012924 554.532776,132.985672 554.759827,133.368561 
	C555.050171,134.498215 555.113464,135.244995 555.176758,135.991760 
	C555.178101,136.441589 555.179443,136.891434 554.991577,137.716949 
	C554.802368,138.092651 554.345154,138.039444 554.345154,138.039444 
	C554.147156,136.546768 553.949097,135.054077 553.909851,133.287170 
z"/>
<path fill="#0F0E0F" opacity="1.000000" stroke="none" 
	d="
M707.518127,149.643646 
	C707.072510,150.948547 706.320129,152.411606 705.192688,153.902222 
	C705.615540,152.553802 706.413513,151.177811 707.518127,149.643646 
z"/>
<path fill="#131212" opacity="1.000000" stroke="none" 
	d="
M263.437988,77.082138 
	C262.337982,77.222382 261.158295,77.068001 259.978638,76.913612 
	C260.221924,76.421844 260.465210,75.930077 260.862366,75.189705 
	C261.796906,75.556564 262.577637,76.172035 263.437988,77.082138 
z"/>
<path fill="#323031" opacity="1.000000" stroke="none" 
	d="
M829.758545,72.177460 
	C829.129395,73.030670 828.185669,73.872597 826.911682,74.570480 
	C827.535645,73.673012 828.489868,72.919594 829.758545,72.177460 
z"/>
<path fill="#090909" opacity="1.000000" stroke="none" 
	d="
M560.685425,71.304176 
	C560.120972,71.928986 559.237122,72.529747 558.046509,73.006287 
	C558.615173,72.348091 559.490662,71.814102 560.685425,71.304176 
z"/>
<path fill="#131212" opacity="1.000000" stroke="none" 
	d="
M257.234863,72.544708 
	C256.009583,72.392860 254.592239,71.941902 253.149277,71.084869 
	C254.430023,71.201057 255.736389,71.723328 257.234863,72.544708 
z"/>
<path fill="#323031" opacity="1.000000" stroke="none" 
	d="
M569.336914,70.051216 
	C568.975159,69.761467 568.925598,69.461594 568.854492,68.941223 
	C570.070374,68.959381 571.266296,69.204880 572.489258,69.772858 
	C571.574463,70.074974 570.632507,70.054611 569.336914,70.051216 
z"/>
<path fill="#323031" opacity="1.000000" stroke="none" 
	d="
M622.628052,132.192078 
	C623.059387,132.811035 623.349182,133.725983 623.408691,134.797379 
	C622.947754,134.131897 622.717163,133.309982 622.628052,132.192078 
z"/>
<path fill="#262426" opacity="1.000000" stroke="none" 
	d="
M511.509247,16.753101 
	C511.115814,16.163450 510.803680,15.259070 510.727875,14.182756 
	C511.172974,14.820006 511.381775,15.629189 511.509247,16.753101 
z"/>
<path fill="#323031" opacity="1.000000" stroke="none" 
	d="
M623.961304,112.301437 
	C624.194031,112.981590 624.241211,113.931099 624.039551,114.996811 
	C623.785767,114.265610 623.780762,113.418205 623.961304,112.301437 
z"/>
<path fill="#323031" opacity="1.000000" stroke="none" 
	d="
M604.722961,68.439911 
	C604.067810,68.736267 603.039429,68.862518 601.966797,68.694260 
	C602.731628,68.356430 603.540710,68.313118 604.722961,68.439911 
z"/>
<path fill="#090909" opacity="1.000000" stroke="none" 
	d="
M554.254883,138.354584 
	C554.345154,138.039444 554.802368,138.092651 555.031006,138.052185 
	C555.812622,138.508713 556.365540,139.005692 556.924316,139.820847 
	C556.279541,140.068146 555.629028,139.997299 554.650818,139.942291 
	C554.270325,139.528656 554.217468,139.099197 554.254883,138.354584 
z"/>
<path fill="#0D0C0E" opacity="1.000000" stroke="none" 
	d="
M789.937378,102.378357 
	C790.687988,102.020012 791.458923,102.009972 792.615356,101.999863 
	C792.570740,104.688347 791.442932,104.455856 789.937378,102.378357 
z"/>
<path fill="#423E41" opacity="1.000000" stroke="none" 
	d="
M291.277710,83.115601 
	C292.004211,82.917030 292.995758,82.907707 294.064941,83.177048 
	C293.275970,83.405426 292.409363,83.355133 291.277710,83.115601 
z"/>
<path fill="#262426" opacity="1.000000" stroke="none" 
	d="
M491.947632,68.242264 
	C492.205292,68.916115 492.309448,69.806503 492.153442,70.865067 
	C491.860260,70.175095 491.827179,69.316940 491.947632,68.242264 
z"/>
<path fill="#323031" opacity="1.000000" stroke="none" 
	d="
M575.682617,88.330856 
	C575.044006,88.408104 574.007324,88.619026 572.946289,88.504913 
	C573.709412,88.274765 574.497009,88.369652 575.682617,88.330856 
z"/>
<path fill="#262426" opacity="1.000000" stroke="none" 
	d="
M547.732666,76.369987 
	C547.169983,76.906456 546.292053,77.452049 545.065125,77.928772 
	C545.616577,77.366302 546.516968,76.872711 547.732666,76.369987 
z"/>
<path fill="#323031" opacity="1.000000" stroke="none" 
	d="
M590.733704,72.126175 
	C590.359009,72.807701 589.684387,73.474953 588.687988,74.115295 
	C589.055420,73.429558 589.744629,72.770729 590.733704,72.126175 
z"/>
<path fill="#323031" opacity="1.000000" stroke="none" 
	d="
M933.766479,69.444595 
	C933.191040,69.984146 932.300415,70.490379 931.068726,70.922012 
	C931.635559,70.368706 932.543396,69.889992 933.766479,69.444595 
z"/>
<path fill="#0D0C0E" opacity="1.000000" stroke="none" 
	d="
M780.340454,83.274384 
	C781.057556,83.519524 781.801086,84.047058 782.335205,84.763367 
	C781.539490,84.487007 780.953186,84.021889 780.340454,83.274384 
z"/>
<path fill="#0F0E0F" opacity="1.000000" stroke="none" 
	d="
M689.265137,178.806992 
	C689.814819,178.204498 690.689697,177.623779 691.925903,177.076385 
	C691.388245,177.682724 690.489258,178.255753 689.265137,178.806992 
z"/>
<path fill="#090909" opacity="1.000000" stroke="none" 
	d="
M554.656677,73.892487 
	C554.150818,74.628128 553.301636,75.282013 552.075195,75.910599 
	C552.569763,75.193771 553.441528,74.502243 554.656677,73.892487 
z"/>
<path fill="#0F0E0F" opacity="1.000000" stroke="none" 
	d="
M665.120178,160.602966 
	C664.231079,160.534805 663.185364,160.177170 662.068359,159.467316 
	C662.985901,159.514557 663.974792,159.914017 665.120178,160.602966 
z"/>
<path fill="#423E41" opacity="1.000000" stroke="none" 
	d="
M753.137024,75.236740 
	C753.476807,74.911636 754.091187,74.644936 754.828735,74.575134 
	C754.438538,74.946404 753.925049,75.120766 753.137024,75.236740 
z"/>
<path fill="#090909" opacity="1.000000" stroke="none" 
	d="
M586.764221,174.943588 
	C586.332642,175.058975 585.712646,174.979919 585.044128,174.646317 
	C585.522339,174.510895 586.049072,174.630005 586.764221,174.943588 
z"/>
<path fill="#323031" opacity="1.000000" stroke="none" 
	d="
M615.687622,75.768051 
	C615.118713,75.521980 614.558105,74.978691 614.051758,74.119591 
	C614.635986,74.359467 615.165955,74.915154 615.687622,75.768051 
z"/>
<path fill="#323031" opacity="1.000000" stroke="none" 
	d="
M645.541870,173.052979 
	C645.958313,173.457275 646.021362,173.850906 646.073853,174.543839 
	C645.349365,174.468796 644.635437,174.094467 643.847412,173.420807 
	C644.245056,173.095093 644.716675,173.068710 645.541870,173.052979 
z"/>
<path fill="#0F0E0F" opacity="1.000000" stroke="none" 
	d="
M716.159790,144.835831 
	C715.918762,144.371719 715.856201,143.749649 716.060791,143.003571 
	C716.331421,143.479004 716.334839,144.078430 716.159790,144.835831 
z"/>
<path fill="#262426" opacity="1.000000" stroke="none" 
	d="
M489.044434,30.283047 
	C489.547699,30.532303 490.051514,31.082434 490.333130,31.799946 
	C489.755646,31.506191 489.400299,31.045055 489.044434,30.283047 
z"/>
<path fill="#423E41" opacity="1.000000" stroke="none" 
	d="
M353.197510,178.387939 
	C353.633759,178.059769 354.304016,177.926758 355.065308,178.034180 
	C354.581390,178.377441 354.006439,178.480270 353.197510,178.387939 
z"/>
<path fill="#423E41" opacity="1.000000" stroke="none" 
	d="
M376.179016,178.038757 
	C376.572906,177.772995 377.128632,177.653534 377.834534,177.729202 
	C377.436768,178.011246 376.888824,178.098160 376.179016,178.038757 
z"/>
<path fill="#262426" opacity="1.000000" stroke="none" 
	d="
M335.744781,75.149773 
	C335.550415,75.733192 335.054291,76.347115 334.231934,76.945969 
	C334.418152,76.347359 334.930603,75.763817 335.744781,75.149773 
z"/>
<path fill="#0F0E0F" opacity="1.000000" stroke="none" 
	d="
M661.226440,181.084274 
	C661.663818,180.917526 662.287598,180.959717 662.963867,181.250854 
	C662.481934,181.430954 661.947327,181.362091 661.226440,181.084274 
z"/>
<path fill="#0F0E0F" opacity="1.000000" stroke="none" 
	d="
M680.270752,181.749954 
	C680.541138,181.273605 681.092468,180.871719 681.800659,180.677048 
	C681.488953,181.197647 681.020264,181.511032 680.270752,181.749954 
z"/>
<path fill="#423E41" opacity="1.000000" stroke="none" 
	d="
M291.804321,76.308868 
	C291.514801,76.777199 290.930298,77.204140 290.194519,77.423492 
	C290.531952,76.899780 291.020660,76.583633 291.804321,76.308868 
z"/>
<path fill="#0F0E0F" opacity="1.000000" stroke="none" 
	d="
M657.269165,155.340652 
	C656.627319,155.313416 655.871094,154.987381 655.065063,154.309662 
	C655.728394,154.319260 656.441589,154.680542 657.269165,155.340652 
z"/>
<path fill="#323031" opacity="1.000000" stroke="none" 
	d="
M633.477356,87.714249 
	C633.470825,88.356522 633.182556,89.137596 632.556519,89.983566 
	C632.544434,89.316658 632.869995,88.584862 633.477356,87.714249 
z"/>
<path fill="#191718" opacity="1.000000" stroke="none" 
	d="
M299.144135,93.316101 
	C299.425049,93.633095 299.613129,94.286270 299.526581,94.980530 
	C299.185089,94.565170 299.118164,94.108727 299.144135,93.316101 
z"/>
<path fill="#0D0C0E" opacity="1.000000" stroke="none" 
	d="
M787.719116,96.381889 
	C788.155334,96.708939 788.563843,97.322304 788.660645,98.069061 
	C788.129761,97.691048 787.910583,97.179634 787.719116,96.381889 
z"/>
<path fill="#323031" opacity="1.000000" stroke="none" 
	d="
M969.332214,72.448837 
	C968.691467,72.472702 967.888672,72.233665 967.009888,71.660011 
	C967.679321,71.612244 968.424744,71.899094 969.332214,72.448837 
z"/>
<path fill="#423E41" opacity="1.000000" stroke="none" 
	d="
M306.782104,70.262543 
	C306.411194,70.786934 305.736359,71.277931 304.743408,71.617790 
	C305.109558,71.054153 305.793884,70.641655 306.782104,70.262543 
z"/>
<path fill="#323031" opacity="1.000000" stroke="none" 
	d="
M565.725342,69.082565 
	C566.026245,69.533150 566.023560,69.946869 566.007141,70.670944 
	C565.444580,70.843925 564.895874,70.706551 564.185791,70.332489 
	C564.490234,69.745766 564.955994,69.395729 565.725342,69.082565 
z"/>
<path fill="#262426" opacity="1.000000" stroke="none" 
	d="
M326.597839,82.934875 
	C326.426117,83.549316 325.943115,84.220291 325.109924,84.887032 
	C325.268646,84.252342 325.777618,83.621880 326.597839,82.934875 
z"/>
<path fill="#262426" opacity="1.000000" stroke="none" 
	d="
M328.714355,81.075844 
	C328.525970,81.659225 328.033325,82.286217 327.209076,82.909805 
	C327.388336,82.310753 327.899231,81.715103 328.714355,81.075844 
z"/>
<path fill="#191718" opacity="1.000000" stroke="none" 
	d="
M298.441467,89.235687 
	C298.807098,89.532127 299.170074,90.101692 299.322510,90.817154 
	C298.887604,90.478302 298.663208,89.993553 298.441467,89.235687 
z"/>
<path fill="#0F0E0F" opacity="1.000000" stroke="none" 
	d="
M710.554688,144.658005 
	C710.506470,145.283264 710.180847,146.067917 709.514771,146.928680 
	C709.541992,146.275650 709.909668,145.546524 710.554688,144.658005 
z"/>
<path fill="#423E41" opacity="1.000000" stroke="none" 
	d="
M298.821411,73.448601 
	C298.475433,73.944260 297.827789,74.401611 296.864685,74.763229 
	C297.206085,74.248428 297.862885,73.829361 298.821411,73.448601 
z"/>
<path fill="#EAE6E9" opacity="1.000000" stroke="none" 
	d="
M1010.261719,63.520180 
	C1010.533630,62.922661 1010.970093,62.524822 1011.718750,62.214005 
	C1011.496033,62.773968 1010.961121,63.246918 1010.261719,63.520180 
z"/>
<path fill="#090809" opacity="1.000000" stroke="none" 
	d="
M591.592896,179.340912 
	C591.183411,178.650482 591.237854,177.932541 591.618164,176.760986 
	C591.981628,177.309372 592.019165,178.311386 591.592896,179.340912 
z"/>
<path fill="#0A090A" opacity="1.000000" stroke="none" 
	d="
M991.154785,140.942871 
	C991.135742,140.983261 991.097717,140.874939 991.097717,140.874939 
	C991.097717,140.874939 991.109131,141.039841 991.164307,140.932800 
	C991.219543,140.825775 991.173828,140.902496 991.154785,140.942871 
z"/>
<path fill="#423E41" opacity="1.000000" stroke="none" 
	d="
M289.274078,82.970871 
	C289.309875,82.835388 289.516113,82.691132 289.617432,82.765785 
	C289.718750,82.840439 289.630005,83.163857 289.630005,83.163857 
	C289.630005,83.163857 289.238281,83.106354 289.274078,82.970871 
z"/>
<path fill="#FBFAF7" opacity="1.000000" stroke="none" 
	d="
M480.079559,79.814323 
	C489.151398,85.825150 491.895142,94.908310 492.280579,104.473808 
	C492.933441,120.675957 492.514709,136.918579 492.810638,153.139374 
	C492.908386,158.497345 490.308075,161.453735 486.193542,164.409058 
	C470.565887,175.633789 452.917023,166.941177 445.536377,154.539093 
	C432.773804,133.093521 432.186035,110.945450 443.380463,88.719620 
	C449.584076,76.402763 466.195007,70.707748 480.079559,79.814323 
z"/>
<path fill="#262426" opacity="1.000000" stroke="none" 
	d="
M508.532776,15.550468 
	C508.477203,15.583676 508.588348,15.517262 508.532776,15.550468 
z"/>
<path fill="#262426" opacity="1.000000" stroke="none" 
	d="
M352.530182,70.538010 
	C352.477112,70.567986 352.583252,70.508034 352.530182,70.538010 
z"/>
<path fill="#F9F8F4" opacity="1.000000" stroke="none" 
	d="
M966.463257,103.082497 
	C964.932922,103.891403 963.402588,104.700310 961.193604,105.506149 
	C959.682007,105.692268 958.848877,105.881447 958.015808,106.070625 
	C945.398132,105.946167 932.780640,105.787003 920.162659,105.712990 
	C914.493469,105.679726 913.772583,104.917465 914.716492,99.351181 
	C917.110596,85.232780 931.258728,74.163666 945.187805,75.993050 
	C948.666077,76.449875 951.929565,78.541183 955.794617,80.188255 
	C956.855164,80.683372 957.412964,80.871483 957.970703,81.059586 
	C959.520813,82.884300 961.070923,84.709015 962.906372,87.112335 
	C964.282227,92.821465 965.372742,97.951981 966.463257,103.082497 
z"/>
<path fill="#323031" opacity="1.000000" stroke="none" 
	d="
M966.804443,103.005508 
	C965.372742,97.951981 964.282227,92.821465 963.162415,87.316971 
	C967.283203,89.572243 969.739685,99.358681 966.804443,103.005508 
z"/>
<path fill="#323031" opacity="1.000000" stroke="none" 
	d="
M958.175049,106.297852 
	C958.848877,105.881447 959.682007,105.692268 960.810486,105.648849 
	C960.182068,106.038101 959.258179,106.281586 958.175049,106.297852 
z"/>
<path fill="#323031" opacity="1.000000" stroke="none" 
	d="
M957.979126,80.761040 
	C957.412964,80.871483 956.855164,80.683372 956.152466,80.230148 
	C956.667480,80.130852 957.327515,80.296669 957.979126,80.761040 
z"/>
<path fill="#F9F8F4" opacity="1.000000" stroke="none" 
	d="
M228.921875,75.373962 
	C241.095535,75.802376 248.950119,81.521027 252.822845,92.657272 
	C253.040512,93.283173 253.241211,93.918388 253.396027,94.562195 
	C255.446259,103.087914 253.922104,104.826767 245.339996,104.644043 
	C233.399063,104.389809 221.452042,104.430756 209.508316,104.288635 
	C207.398254,104.263535 205.291489,103.961266 203.255981,103.793007 
	C202.371201,89.254730 213.598114,76.833839 228.921875,75.373962 
z"/>
<path fill="#F9F8F4" opacity="1.000000" stroke="none" 
	d="
M689.368042,90.877968 
	C690.288940,94.454849 691.225525,97.650978 691.731384,100.913879 
	C692.160645,103.682838 690.864990,105.279503 687.794373,105.269264 
	C673.034363,105.220085 658.274048,105.224464 643.514038,105.253784 
	C640.983093,105.258812 639.496582,104.699913 639.609924,101.615051 
	C639.974060,91.702454 649.134705,80.680580 659.062805,77.321281 
	C671.479736,73.119850 682.077209,79.396568 687.842712,87.329315 
	C688.505554,88.241287 688.755493,89.453270 689.368042,90.877968 
z"/>
<path fill="#090909" opacity="1.000000" stroke="none" 
	d="
M555.491333,135.930191 
	C555.113464,135.244995 555.050171,134.498215 554.992188,133.376038 
	C555.267029,133.956635 555.536499,134.912628 555.491333,135.930191 
z"/>
<path fill="#090909" opacity="1.000000" stroke="none" 
	d="
M555.427734,127.961655 
	C555.132568,127.566147 555.112488,127.119621 555.135254,126.340302 
	C555.645508,126.328827 556.112793,126.650146 556.580139,126.971458 
	C556.287659,127.284515 555.995178,127.597580 555.427734,127.961655 
z"/>
<path fill="#F3F0F2" opacity="1.000000" stroke="none" 
	d="
M1015.303345,38.344631 
	C1017.173706,44.118580 1018.222900,49.683075 1014.844849,55.442169 
	C1009.670044,59.807251 1008.444702,53.903915 1005.274475,52.165512 
	C1004.905029,51.258747 1004.837341,50.512711 1004.730713,49.061905 
	C1004.619690,47.883846 1004.547668,47.410553 1004.475708,46.937263 
	C1008.780212,40.684761 1008.506348,37.023487 1003.446533,35.603649 
	C1000.467773,34.767761 997.336243,34.481789 994.280029,33.913013 
	C993.366760,33.743046 992.475830,33.453201 991.051575,33.081924 
	C992.024475,31.889189 992.696594,31.065144 993.669128,30.099220 
	C995.278870,29.975309 996.609497,30.154613 997.893921,29.984682 
	C1005.398865,28.991816 1010.959106,31.985735 1015.303345,38.344631 
z"/>
<path fill="#F3F0F2" opacity="1.000000" stroke="none" 
	d="
M985.647522,56.790348 
	C984.918152,56.057728 984.543274,55.358246 983.932678,54.400124 
	C983.547180,53.903854 983.397400,53.666222 983.247681,53.428596 
	C983.352478,53.109264 983.457275,52.789928 983.371704,52.274979 
	C983.401794,48.320286 983.622253,44.561207 983.867737,40.386826 
	C985.350220,38.833389 986.807678,37.695251 988.265137,36.557098 
	C989.205872,38.373585 990.975525,40.212795 990.926514,42.002182 
	C990.797485,46.713490 989.877869,51.403145 989.055664,56.404938 
	C987.892883,56.746799 986.947510,56.785145 985.647522,56.790348 
z"/>
<path fill="#FCFBF7" opacity="1.000000" stroke="none" 
	d="
M1007.904297,61.604977 
	C1006.324829,62.538059 1004.908081,63.103588 1003.201294,63.861084 
	C1002.911255,64.053047 1002.457153,63.904099 1002.196655,63.519855 
	C1001.274780,63.311790 1000.613464,63.487968 999.952087,63.664127 
	C999.527832,63.755871 999.103516,63.847633 998.298828,63.609104 
	C997.268250,63.216152 996.617981,63.153496 995.967773,63.090847 
	C995.053650,62.648212 994.139526,62.205574 993.083740,61.144928 
	C992.964355,60.040031 992.986633,59.553139 993.008911,59.066238 
	C994.392700,58.745693 995.776611,58.425152 997.493225,58.027542 
	C997.007935,55.773727 996.581421,53.792568 996.510986,51.406601 
	C997.245544,50.671089 997.623962,50.340389 998.002441,50.009686 
	C999.173645,50.894093 1000.344849,51.778503 1001.810303,52.814941 
	C1003.542908,54.617100 1005.065491,56.203266 1006.386475,57.942558 
	C1007.120361,58.908890 1007.517883,60.130722 1007.904297,61.604977 
z"/>
<path fill="#D7D5D8" opacity="1.000000" stroke="none" 
	d="
M997.349243,44.331238 
	C996.616638,43.449547 995.902527,42.757023 995.904541,42.066578 
	C995.911438,39.695213 995.219238,36.433247 998.931030,36.565655 
	C1000.257324,36.612965 1002.447937,38.823059 1002.590454,40.215302 
	C1002.896057,43.199696 1001.266724,45.284401 997.349243,44.331238 
z"/>
<path fill="#323031" opacity="1.000000" stroke="none" 
	d="
M1004.224243,46.982319 
	C1004.547668,47.410553 1004.619690,47.883846 1004.610596,48.706966 
	C1004.343933,48.380322 1004.158325,47.703846 1004.224243,46.982319 
z"/>
<path fill="#EAE6E9" opacity="1.000000" stroke="none" 
	d="
M997.703003,49.869102 
	C997.623962,50.340389 997.245544,50.671089 996.605347,51.020172 
	C996.696960,50.601871 997.050232,50.165195 997.703003,49.869102 
z"/>
<path fill="#EAE6E9" opacity="1.000000" stroke="none" 
	d="
M992.704346,58.982697 
	C992.986633,59.553139 992.964355,60.040031 992.908447,60.891418 
	C992.874878,61.255913 992.387573,61.228050 992.143677,61.238091 
	C991.800598,60.731358 991.701416,60.214581 991.685181,59.306065 
	C991.978760,58.909267 992.189209,58.904209 992.704346,58.982697 
z"/>
<path fill="#070607" opacity="1.000000" stroke="none" 
	d="
M301.480408,141.447449 
	C301.535004,141.413651 301.425781,141.481232 301.480408,141.447449 
z"/>
<path fill="#EAE6E9" opacity="1.000000" stroke="none" 
	d="
M996.100952,63.371418 
	C996.617981,63.153496 997.268250,63.216152 997.972229,63.559875 
	C997.428711,63.777958 996.831360,63.714977 996.100952,63.371418 
z"/>
<path fill="#EAE6E9" opacity="1.000000" stroke="none" 
	d="
M1000.301331,63.650826 
	C1000.613464,63.487968 1001.274780,63.311790 1001.992065,63.396351 
	C1001.582153,63.650562 1001.116394,63.644032 1000.301331,63.650826 
z"/>
<path fill="#423E41" opacity="1.000000" stroke="none" 
	d="
M983.082703,53.663101 
	C983.397400,53.666222 983.547180,53.903854 983.645386,54.560284 
	C983.368469,54.618591 983.143127,54.258102 983.082703,53.663101 
z"/>
</svg>